G75*
%MOIN*%
%OFA0B0*%
%FSLAX25Y25*%
%IPPOS*%
%LPD*%
%AMOC8*
5,1,8,0,0,1.08239X$1,22.5*
%
%ADD10C,0.00000*%
D10*
X0001000Y0001000D02*
X0001000Y0715567D01*
X0573835Y0715567D01*
X0573835Y0001000D01*
X0001000Y0001000D01*
X0012811Y0057102D02*
X0012814Y0057344D01*
X0012823Y0057585D01*
X0012838Y0057826D01*
X0012858Y0058067D01*
X0012885Y0058307D01*
X0012918Y0058546D01*
X0012956Y0058785D01*
X0013000Y0059022D01*
X0013050Y0059259D01*
X0013106Y0059494D01*
X0013168Y0059727D01*
X0013235Y0059959D01*
X0013308Y0060190D01*
X0013386Y0060418D01*
X0013471Y0060644D01*
X0013560Y0060869D01*
X0013655Y0061091D01*
X0013756Y0061310D01*
X0013862Y0061528D01*
X0013973Y0061742D01*
X0014090Y0061954D01*
X0014211Y0062162D01*
X0014338Y0062368D01*
X0014470Y0062570D01*
X0014607Y0062770D01*
X0014748Y0062965D01*
X0014894Y0063158D01*
X0015045Y0063346D01*
X0015201Y0063531D01*
X0015361Y0063712D01*
X0015525Y0063889D01*
X0015694Y0064062D01*
X0015867Y0064231D01*
X0016044Y0064395D01*
X0016225Y0064555D01*
X0016410Y0064711D01*
X0016598Y0064862D01*
X0016791Y0065008D01*
X0016986Y0065149D01*
X0017186Y0065286D01*
X0017388Y0065418D01*
X0017594Y0065545D01*
X0017802Y0065666D01*
X0018014Y0065783D01*
X0018228Y0065894D01*
X0018446Y0066000D01*
X0018665Y0066101D01*
X0018887Y0066196D01*
X0019112Y0066285D01*
X0019338Y0066370D01*
X0019566Y0066448D01*
X0019797Y0066521D01*
X0020029Y0066588D01*
X0020262Y0066650D01*
X0020497Y0066706D01*
X0020734Y0066756D01*
X0020971Y0066800D01*
X0021210Y0066838D01*
X0021449Y0066871D01*
X0021689Y0066898D01*
X0021930Y0066918D01*
X0022171Y0066933D01*
X0022412Y0066942D01*
X0022654Y0066945D01*
X0022896Y0066942D01*
X0023137Y0066933D01*
X0023378Y0066918D01*
X0023619Y0066898D01*
X0023859Y0066871D01*
X0024098Y0066838D01*
X0024337Y0066800D01*
X0024574Y0066756D01*
X0024811Y0066706D01*
X0025046Y0066650D01*
X0025279Y0066588D01*
X0025511Y0066521D01*
X0025742Y0066448D01*
X0025970Y0066370D01*
X0026196Y0066285D01*
X0026421Y0066196D01*
X0026643Y0066101D01*
X0026862Y0066000D01*
X0027080Y0065894D01*
X0027294Y0065783D01*
X0027506Y0065666D01*
X0027714Y0065545D01*
X0027920Y0065418D01*
X0028122Y0065286D01*
X0028322Y0065149D01*
X0028517Y0065008D01*
X0028710Y0064862D01*
X0028898Y0064711D01*
X0029083Y0064555D01*
X0029264Y0064395D01*
X0029441Y0064231D01*
X0029614Y0064062D01*
X0029783Y0063889D01*
X0029947Y0063712D01*
X0030107Y0063531D01*
X0030263Y0063346D01*
X0030414Y0063158D01*
X0030560Y0062965D01*
X0030701Y0062770D01*
X0030838Y0062570D01*
X0030970Y0062368D01*
X0031097Y0062162D01*
X0031218Y0061954D01*
X0031335Y0061742D01*
X0031446Y0061528D01*
X0031552Y0061310D01*
X0031653Y0061091D01*
X0031748Y0060869D01*
X0031837Y0060644D01*
X0031922Y0060418D01*
X0032000Y0060190D01*
X0032073Y0059959D01*
X0032140Y0059727D01*
X0032202Y0059494D01*
X0032258Y0059259D01*
X0032308Y0059022D01*
X0032352Y0058785D01*
X0032390Y0058546D01*
X0032423Y0058307D01*
X0032450Y0058067D01*
X0032470Y0057826D01*
X0032485Y0057585D01*
X0032494Y0057344D01*
X0032497Y0057102D01*
X0032494Y0056860D01*
X0032485Y0056619D01*
X0032470Y0056378D01*
X0032450Y0056137D01*
X0032423Y0055897D01*
X0032390Y0055658D01*
X0032352Y0055419D01*
X0032308Y0055182D01*
X0032258Y0054945D01*
X0032202Y0054710D01*
X0032140Y0054477D01*
X0032073Y0054245D01*
X0032000Y0054014D01*
X0031922Y0053786D01*
X0031837Y0053560D01*
X0031748Y0053335D01*
X0031653Y0053113D01*
X0031552Y0052894D01*
X0031446Y0052676D01*
X0031335Y0052462D01*
X0031218Y0052250D01*
X0031097Y0052042D01*
X0030970Y0051836D01*
X0030838Y0051634D01*
X0030701Y0051434D01*
X0030560Y0051239D01*
X0030414Y0051046D01*
X0030263Y0050858D01*
X0030107Y0050673D01*
X0029947Y0050492D01*
X0029783Y0050315D01*
X0029614Y0050142D01*
X0029441Y0049973D01*
X0029264Y0049809D01*
X0029083Y0049649D01*
X0028898Y0049493D01*
X0028710Y0049342D01*
X0028517Y0049196D01*
X0028322Y0049055D01*
X0028122Y0048918D01*
X0027920Y0048786D01*
X0027714Y0048659D01*
X0027506Y0048538D01*
X0027294Y0048421D01*
X0027080Y0048310D01*
X0026862Y0048204D01*
X0026643Y0048103D01*
X0026421Y0048008D01*
X0026196Y0047919D01*
X0025970Y0047834D01*
X0025742Y0047756D01*
X0025511Y0047683D01*
X0025279Y0047616D01*
X0025046Y0047554D01*
X0024811Y0047498D01*
X0024574Y0047448D01*
X0024337Y0047404D01*
X0024098Y0047366D01*
X0023859Y0047333D01*
X0023619Y0047306D01*
X0023378Y0047286D01*
X0023137Y0047271D01*
X0022896Y0047262D01*
X0022654Y0047259D01*
X0022412Y0047262D01*
X0022171Y0047271D01*
X0021930Y0047286D01*
X0021689Y0047306D01*
X0021449Y0047333D01*
X0021210Y0047366D01*
X0020971Y0047404D01*
X0020734Y0047448D01*
X0020497Y0047498D01*
X0020262Y0047554D01*
X0020029Y0047616D01*
X0019797Y0047683D01*
X0019566Y0047756D01*
X0019338Y0047834D01*
X0019112Y0047919D01*
X0018887Y0048008D01*
X0018665Y0048103D01*
X0018446Y0048204D01*
X0018228Y0048310D01*
X0018014Y0048421D01*
X0017802Y0048538D01*
X0017594Y0048659D01*
X0017388Y0048786D01*
X0017186Y0048918D01*
X0016986Y0049055D01*
X0016791Y0049196D01*
X0016598Y0049342D01*
X0016410Y0049493D01*
X0016225Y0049649D01*
X0016044Y0049809D01*
X0015867Y0049973D01*
X0015694Y0050142D01*
X0015525Y0050315D01*
X0015361Y0050492D01*
X0015201Y0050673D01*
X0015045Y0050858D01*
X0014894Y0051046D01*
X0014748Y0051239D01*
X0014607Y0051434D01*
X0014470Y0051634D01*
X0014338Y0051836D01*
X0014211Y0052042D01*
X0014090Y0052250D01*
X0013973Y0052462D01*
X0013862Y0052676D01*
X0013756Y0052894D01*
X0013655Y0053113D01*
X0013560Y0053335D01*
X0013471Y0053560D01*
X0013386Y0053786D01*
X0013308Y0054014D01*
X0013235Y0054245D01*
X0013168Y0054477D01*
X0013106Y0054710D01*
X0013050Y0054945D01*
X0013000Y0055182D01*
X0012956Y0055419D01*
X0012918Y0055658D01*
X0012885Y0055897D01*
X0012858Y0056137D01*
X0012838Y0056378D01*
X0012823Y0056619D01*
X0012814Y0056860D01*
X0012811Y0057102D01*
X0029543Y0107299D02*
X0029545Y0107492D01*
X0029552Y0107685D01*
X0029564Y0107878D01*
X0029581Y0108071D01*
X0029602Y0108263D01*
X0029628Y0108454D01*
X0029659Y0108645D01*
X0029694Y0108835D01*
X0029734Y0109024D01*
X0029779Y0109212D01*
X0029828Y0109399D01*
X0029882Y0109585D01*
X0029940Y0109769D01*
X0030003Y0109952D01*
X0030071Y0110133D01*
X0030142Y0110312D01*
X0030219Y0110490D01*
X0030299Y0110666D01*
X0030384Y0110839D01*
X0030473Y0111011D01*
X0030566Y0111180D01*
X0030663Y0111347D01*
X0030765Y0111512D01*
X0030870Y0111674D01*
X0030979Y0111833D01*
X0031093Y0111990D01*
X0031210Y0112143D01*
X0031330Y0112294D01*
X0031455Y0112442D01*
X0031583Y0112587D01*
X0031714Y0112728D01*
X0031849Y0112867D01*
X0031988Y0113002D01*
X0032129Y0113133D01*
X0032274Y0113261D01*
X0032422Y0113386D01*
X0032573Y0113506D01*
X0032726Y0113623D01*
X0032883Y0113737D01*
X0033042Y0113846D01*
X0033204Y0113951D01*
X0033369Y0114053D01*
X0033536Y0114150D01*
X0033705Y0114243D01*
X0033877Y0114332D01*
X0034050Y0114417D01*
X0034226Y0114497D01*
X0034404Y0114574D01*
X0034583Y0114645D01*
X0034764Y0114713D01*
X0034947Y0114776D01*
X0035131Y0114834D01*
X0035317Y0114888D01*
X0035504Y0114937D01*
X0035692Y0114982D01*
X0035881Y0115022D01*
X0036071Y0115057D01*
X0036262Y0115088D01*
X0036453Y0115114D01*
X0036645Y0115135D01*
X0036838Y0115152D01*
X0037031Y0115164D01*
X0037224Y0115171D01*
X0037417Y0115173D01*
X0037610Y0115171D01*
X0037803Y0115164D01*
X0037996Y0115152D01*
X0038189Y0115135D01*
X0038381Y0115114D01*
X0038572Y0115088D01*
X0038763Y0115057D01*
X0038953Y0115022D01*
X0039142Y0114982D01*
X0039330Y0114937D01*
X0039517Y0114888D01*
X0039703Y0114834D01*
X0039887Y0114776D01*
X0040070Y0114713D01*
X0040251Y0114645D01*
X0040430Y0114574D01*
X0040608Y0114497D01*
X0040784Y0114417D01*
X0040957Y0114332D01*
X0041129Y0114243D01*
X0041298Y0114150D01*
X0041465Y0114053D01*
X0041630Y0113951D01*
X0041792Y0113846D01*
X0041951Y0113737D01*
X0042108Y0113623D01*
X0042261Y0113506D01*
X0042412Y0113386D01*
X0042560Y0113261D01*
X0042705Y0113133D01*
X0042846Y0113002D01*
X0042985Y0112867D01*
X0043120Y0112728D01*
X0043251Y0112587D01*
X0043379Y0112442D01*
X0043504Y0112294D01*
X0043624Y0112143D01*
X0043741Y0111990D01*
X0043855Y0111833D01*
X0043964Y0111674D01*
X0044069Y0111512D01*
X0044171Y0111347D01*
X0044268Y0111180D01*
X0044361Y0111011D01*
X0044450Y0110839D01*
X0044535Y0110666D01*
X0044615Y0110490D01*
X0044692Y0110312D01*
X0044763Y0110133D01*
X0044831Y0109952D01*
X0044894Y0109769D01*
X0044952Y0109585D01*
X0045006Y0109399D01*
X0045055Y0109212D01*
X0045100Y0109024D01*
X0045140Y0108835D01*
X0045175Y0108645D01*
X0045206Y0108454D01*
X0045232Y0108263D01*
X0045253Y0108071D01*
X0045270Y0107878D01*
X0045282Y0107685D01*
X0045289Y0107492D01*
X0045291Y0107299D01*
X0045289Y0107106D01*
X0045282Y0106913D01*
X0045270Y0106720D01*
X0045253Y0106527D01*
X0045232Y0106335D01*
X0045206Y0106144D01*
X0045175Y0105953D01*
X0045140Y0105763D01*
X0045100Y0105574D01*
X0045055Y0105386D01*
X0045006Y0105199D01*
X0044952Y0105013D01*
X0044894Y0104829D01*
X0044831Y0104646D01*
X0044763Y0104465D01*
X0044692Y0104286D01*
X0044615Y0104108D01*
X0044535Y0103932D01*
X0044450Y0103759D01*
X0044361Y0103587D01*
X0044268Y0103418D01*
X0044171Y0103251D01*
X0044069Y0103086D01*
X0043964Y0102924D01*
X0043855Y0102765D01*
X0043741Y0102608D01*
X0043624Y0102455D01*
X0043504Y0102304D01*
X0043379Y0102156D01*
X0043251Y0102011D01*
X0043120Y0101870D01*
X0042985Y0101731D01*
X0042846Y0101596D01*
X0042705Y0101465D01*
X0042560Y0101337D01*
X0042412Y0101212D01*
X0042261Y0101092D01*
X0042108Y0100975D01*
X0041951Y0100861D01*
X0041792Y0100752D01*
X0041630Y0100647D01*
X0041465Y0100545D01*
X0041298Y0100448D01*
X0041129Y0100355D01*
X0040957Y0100266D01*
X0040784Y0100181D01*
X0040608Y0100101D01*
X0040430Y0100024D01*
X0040251Y0099953D01*
X0040070Y0099885D01*
X0039887Y0099822D01*
X0039703Y0099764D01*
X0039517Y0099710D01*
X0039330Y0099661D01*
X0039142Y0099616D01*
X0038953Y0099576D01*
X0038763Y0099541D01*
X0038572Y0099510D01*
X0038381Y0099484D01*
X0038189Y0099463D01*
X0037996Y0099446D01*
X0037803Y0099434D01*
X0037610Y0099427D01*
X0037417Y0099425D01*
X0037224Y0099427D01*
X0037031Y0099434D01*
X0036838Y0099446D01*
X0036645Y0099463D01*
X0036453Y0099484D01*
X0036262Y0099510D01*
X0036071Y0099541D01*
X0035881Y0099576D01*
X0035692Y0099616D01*
X0035504Y0099661D01*
X0035317Y0099710D01*
X0035131Y0099764D01*
X0034947Y0099822D01*
X0034764Y0099885D01*
X0034583Y0099953D01*
X0034404Y0100024D01*
X0034226Y0100101D01*
X0034050Y0100181D01*
X0033877Y0100266D01*
X0033705Y0100355D01*
X0033536Y0100448D01*
X0033369Y0100545D01*
X0033204Y0100647D01*
X0033042Y0100752D01*
X0032883Y0100861D01*
X0032726Y0100975D01*
X0032573Y0101092D01*
X0032422Y0101212D01*
X0032274Y0101337D01*
X0032129Y0101465D01*
X0031988Y0101596D01*
X0031849Y0101731D01*
X0031714Y0101870D01*
X0031583Y0102011D01*
X0031455Y0102156D01*
X0031330Y0102304D01*
X0031210Y0102455D01*
X0031093Y0102608D01*
X0030979Y0102765D01*
X0030870Y0102924D01*
X0030765Y0103086D01*
X0030663Y0103251D01*
X0030566Y0103418D01*
X0030473Y0103587D01*
X0030384Y0103759D01*
X0030299Y0103932D01*
X0030219Y0104108D01*
X0030142Y0104286D01*
X0030071Y0104465D01*
X0030003Y0104646D01*
X0029940Y0104829D01*
X0029882Y0105013D01*
X0029828Y0105199D01*
X0029779Y0105386D01*
X0029734Y0105574D01*
X0029694Y0105763D01*
X0029659Y0105953D01*
X0029628Y0106144D01*
X0029602Y0106335D01*
X0029581Y0106527D01*
X0029564Y0106720D01*
X0029552Y0106913D01*
X0029545Y0107106D01*
X0029543Y0107299D01*
X0012811Y0395685D02*
X0012814Y0395927D01*
X0012823Y0396168D01*
X0012838Y0396409D01*
X0012858Y0396650D01*
X0012885Y0396890D01*
X0012918Y0397129D01*
X0012956Y0397368D01*
X0013000Y0397605D01*
X0013050Y0397842D01*
X0013106Y0398077D01*
X0013168Y0398310D01*
X0013235Y0398542D01*
X0013308Y0398773D01*
X0013386Y0399001D01*
X0013471Y0399227D01*
X0013560Y0399452D01*
X0013655Y0399674D01*
X0013756Y0399893D01*
X0013862Y0400111D01*
X0013973Y0400325D01*
X0014090Y0400537D01*
X0014211Y0400745D01*
X0014338Y0400951D01*
X0014470Y0401153D01*
X0014607Y0401353D01*
X0014748Y0401548D01*
X0014894Y0401741D01*
X0015045Y0401929D01*
X0015201Y0402114D01*
X0015361Y0402295D01*
X0015525Y0402472D01*
X0015694Y0402645D01*
X0015867Y0402814D01*
X0016044Y0402978D01*
X0016225Y0403138D01*
X0016410Y0403294D01*
X0016598Y0403445D01*
X0016791Y0403591D01*
X0016986Y0403732D01*
X0017186Y0403869D01*
X0017388Y0404001D01*
X0017594Y0404128D01*
X0017802Y0404249D01*
X0018014Y0404366D01*
X0018228Y0404477D01*
X0018446Y0404583D01*
X0018665Y0404684D01*
X0018887Y0404779D01*
X0019112Y0404868D01*
X0019338Y0404953D01*
X0019566Y0405031D01*
X0019797Y0405104D01*
X0020029Y0405171D01*
X0020262Y0405233D01*
X0020497Y0405289D01*
X0020734Y0405339D01*
X0020971Y0405383D01*
X0021210Y0405421D01*
X0021449Y0405454D01*
X0021689Y0405481D01*
X0021930Y0405501D01*
X0022171Y0405516D01*
X0022412Y0405525D01*
X0022654Y0405528D01*
X0022896Y0405525D01*
X0023137Y0405516D01*
X0023378Y0405501D01*
X0023619Y0405481D01*
X0023859Y0405454D01*
X0024098Y0405421D01*
X0024337Y0405383D01*
X0024574Y0405339D01*
X0024811Y0405289D01*
X0025046Y0405233D01*
X0025279Y0405171D01*
X0025511Y0405104D01*
X0025742Y0405031D01*
X0025970Y0404953D01*
X0026196Y0404868D01*
X0026421Y0404779D01*
X0026643Y0404684D01*
X0026862Y0404583D01*
X0027080Y0404477D01*
X0027294Y0404366D01*
X0027506Y0404249D01*
X0027714Y0404128D01*
X0027920Y0404001D01*
X0028122Y0403869D01*
X0028322Y0403732D01*
X0028517Y0403591D01*
X0028710Y0403445D01*
X0028898Y0403294D01*
X0029083Y0403138D01*
X0029264Y0402978D01*
X0029441Y0402814D01*
X0029614Y0402645D01*
X0029783Y0402472D01*
X0029947Y0402295D01*
X0030107Y0402114D01*
X0030263Y0401929D01*
X0030414Y0401741D01*
X0030560Y0401548D01*
X0030701Y0401353D01*
X0030838Y0401153D01*
X0030970Y0400951D01*
X0031097Y0400745D01*
X0031218Y0400537D01*
X0031335Y0400325D01*
X0031446Y0400111D01*
X0031552Y0399893D01*
X0031653Y0399674D01*
X0031748Y0399452D01*
X0031837Y0399227D01*
X0031922Y0399001D01*
X0032000Y0398773D01*
X0032073Y0398542D01*
X0032140Y0398310D01*
X0032202Y0398077D01*
X0032258Y0397842D01*
X0032308Y0397605D01*
X0032352Y0397368D01*
X0032390Y0397129D01*
X0032423Y0396890D01*
X0032450Y0396650D01*
X0032470Y0396409D01*
X0032485Y0396168D01*
X0032494Y0395927D01*
X0032497Y0395685D01*
X0032494Y0395443D01*
X0032485Y0395202D01*
X0032470Y0394961D01*
X0032450Y0394720D01*
X0032423Y0394480D01*
X0032390Y0394241D01*
X0032352Y0394002D01*
X0032308Y0393765D01*
X0032258Y0393528D01*
X0032202Y0393293D01*
X0032140Y0393060D01*
X0032073Y0392828D01*
X0032000Y0392597D01*
X0031922Y0392369D01*
X0031837Y0392143D01*
X0031748Y0391918D01*
X0031653Y0391696D01*
X0031552Y0391477D01*
X0031446Y0391259D01*
X0031335Y0391045D01*
X0031218Y0390833D01*
X0031097Y0390625D01*
X0030970Y0390419D01*
X0030838Y0390217D01*
X0030701Y0390017D01*
X0030560Y0389822D01*
X0030414Y0389629D01*
X0030263Y0389441D01*
X0030107Y0389256D01*
X0029947Y0389075D01*
X0029783Y0388898D01*
X0029614Y0388725D01*
X0029441Y0388556D01*
X0029264Y0388392D01*
X0029083Y0388232D01*
X0028898Y0388076D01*
X0028710Y0387925D01*
X0028517Y0387779D01*
X0028322Y0387638D01*
X0028122Y0387501D01*
X0027920Y0387369D01*
X0027714Y0387242D01*
X0027506Y0387121D01*
X0027294Y0387004D01*
X0027080Y0386893D01*
X0026862Y0386787D01*
X0026643Y0386686D01*
X0026421Y0386591D01*
X0026196Y0386502D01*
X0025970Y0386417D01*
X0025742Y0386339D01*
X0025511Y0386266D01*
X0025279Y0386199D01*
X0025046Y0386137D01*
X0024811Y0386081D01*
X0024574Y0386031D01*
X0024337Y0385987D01*
X0024098Y0385949D01*
X0023859Y0385916D01*
X0023619Y0385889D01*
X0023378Y0385869D01*
X0023137Y0385854D01*
X0022896Y0385845D01*
X0022654Y0385842D01*
X0022412Y0385845D01*
X0022171Y0385854D01*
X0021930Y0385869D01*
X0021689Y0385889D01*
X0021449Y0385916D01*
X0021210Y0385949D01*
X0020971Y0385987D01*
X0020734Y0386031D01*
X0020497Y0386081D01*
X0020262Y0386137D01*
X0020029Y0386199D01*
X0019797Y0386266D01*
X0019566Y0386339D01*
X0019338Y0386417D01*
X0019112Y0386502D01*
X0018887Y0386591D01*
X0018665Y0386686D01*
X0018446Y0386787D01*
X0018228Y0386893D01*
X0018014Y0387004D01*
X0017802Y0387121D01*
X0017594Y0387242D01*
X0017388Y0387369D01*
X0017186Y0387501D01*
X0016986Y0387638D01*
X0016791Y0387779D01*
X0016598Y0387925D01*
X0016410Y0388076D01*
X0016225Y0388232D01*
X0016044Y0388392D01*
X0015867Y0388556D01*
X0015694Y0388725D01*
X0015525Y0388898D01*
X0015361Y0389075D01*
X0015201Y0389256D01*
X0015045Y0389441D01*
X0014894Y0389629D01*
X0014748Y0389822D01*
X0014607Y0390017D01*
X0014470Y0390217D01*
X0014338Y0390419D01*
X0014211Y0390625D01*
X0014090Y0390833D01*
X0013973Y0391045D01*
X0013862Y0391259D01*
X0013756Y0391477D01*
X0013655Y0391696D01*
X0013560Y0391918D01*
X0013471Y0392143D01*
X0013386Y0392369D01*
X0013308Y0392597D01*
X0013235Y0392828D01*
X0013168Y0393060D01*
X0013106Y0393293D01*
X0013050Y0393528D01*
X0013000Y0393765D01*
X0012956Y0394002D01*
X0012918Y0394241D01*
X0012885Y0394480D01*
X0012858Y0394720D01*
X0012838Y0394961D01*
X0012823Y0395202D01*
X0012814Y0395443D01*
X0012811Y0395685D01*
X0012811Y0471472D02*
X0012814Y0471714D01*
X0012823Y0471955D01*
X0012838Y0472196D01*
X0012858Y0472437D01*
X0012885Y0472677D01*
X0012918Y0472916D01*
X0012956Y0473155D01*
X0013000Y0473392D01*
X0013050Y0473629D01*
X0013106Y0473864D01*
X0013168Y0474097D01*
X0013235Y0474329D01*
X0013308Y0474560D01*
X0013386Y0474788D01*
X0013471Y0475014D01*
X0013560Y0475239D01*
X0013655Y0475461D01*
X0013756Y0475680D01*
X0013862Y0475898D01*
X0013973Y0476112D01*
X0014090Y0476324D01*
X0014211Y0476532D01*
X0014338Y0476738D01*
X0014470Y0476940D01*
X0014607Y0477140D01*
X0014748Y0477335D01*
X0014894Y0477528D01*
X0015045Y0477716D01*
X0015201Y0477901D01*
X0015361Y0478082D01*
X0015525Y0478259D01*
X0015694Y0478432D01*
X0015867Y0478601D01*
X0016044Y0478765D01*
X0016225Y0478925D01*
X0016410Y0479081D01*
X0016598Y0479232D01*
X0016791Y0479378D01*
X0016986Y0479519D01*
X0017186Y0479656D01*
X0017388Y0479788D01*
X0017594Y0479915D01*
X0017802Y0480036D01*
X0018014Y0480153D01*
X0018228Y0480264D01*
X0018446Y0480370D01*
X0018665Y0480471D01*
X0018887Y0480566D01*
X0019112Y0480655D01*
X0019338Y0480740D01*
X0019566Y0480818D01*
X0019797Y0480891D01*
X0020029Y0480958D01*
X0020262Y0481020D01*
X0020497Y0481076D01*
X0020734Y0481126D01*
X0020971Y0481170D01*
X0021210Y0481208D01*
X0021449Y0481241D01*
X0021689Y0481268D01*
X0021930Y0481288D01*
X0022171Y0481303D01*
X0022412Y0481312D01*
X0022654Y0481315D01*
X0022896Y0481312D01*
X0023137Y0481303D01*
X0023378Y0481288D01*
X0023619Y0481268D01*
X0023859Y0481241D01*
X0024098Y0481208D01*
X0024337Y0481170D01*
X0024574Y0481126D01*
X0024811Y0481076D01*
X0025046Y0481020D01*
X0025279Y0480958D01*
X0025511Y0480891D01*
X0025742Y0480818D01*
X0025970Y0480740D01*
X0026196Y0480655D01*
X0026421Y0480566D01*
X0026643Y0480471D01*
X0026862Y0480370D01*
X0027080Y0480264D01*
X0027294Y0480153D01*
X0027506Y0480036D01*
X0027714Y0479915D01*
X0027920Y0479788D01*
X0028122Y0479656D01*
X0028322Y0479519D01*
X0028517Y0479378D01*
X0028710Y0479232D01*
X0028898Y0479081D01*
X0029083Y0478925D01*
X0029264Y0478765D01*
X0029441Y0478601D01*
X0029614Y0478432D01*
X0029783Y0478259D01*
X0029947Y0478082D01*
X0030107Y0477901D01*
X0030263Y0477716D01*
X0030414Y0477528D01*
X0030560Y0477335D01*
X0030701Y0477140D01*
X0030838Y0476940D01*
X0030970Y0476738D01*
X0031097Y0476532D01*
X0031218Y0476324D01*
X0031335Y0476112D01*
X0031446Y0475898D01*
X0031552Y0475680D01*
X0031653Y0475461D01*
X0031748Y0475239D01*
X0031837Y0475014D01*
X0031922Y0474788D01*
X0032000Y0474560D01*
X0032073Y0474329D01*
X0032140Y0474097D01*
X0032202Y0473864D01*
X0032258Y0473629D01*
X0032308Y0473392D01*
X0032352Y0473155D01*
X0032390Y0472916D01*
X0032423Y0472677D01*
X0032450Y0472437D01*
X0032470Y0472196D01*
X0032485Y0471955D01*
X0032494Y0471714D01*
X0032497Y0471472D01*
X0032494Y0471230D01*
X0032485Y0470989D01*
X0032470Y0470748D01*
X0032450Y0470507D01*
X0032423Y0470267D01*
X0032390Y0470028D01*
X0032352Y0469789D01*
X0032308Y0469552D01*
X0032258Y0469315D01*
X0032202Y0469080D01*
X0032140Y0468847D01*
X0032073Y0468615D01*
X0032000Y0468384D01*
X0031922Y0468156D01*
X0031837Y0467930D01*
X0031748Y0467705D01*
X0031653Y0467483D01*
X0031552Y0467264D01*
X0031446Y0467046D01*
X0031335Y0466832D01*
X0031218Y0466620D01*
X0031097Y0466412D01*
X0030970Y0466206D01*
X0030838Y0466004D01*
X0030701Y0465804D01*
X0030560Y0465609D01*
X0030414Y0465416D01*
X0030263Y0465228D01*
X0030107Y0465043D01*
X0029947Y0464862D01*
X0029783Y0464685D01*
X0029614Y0464512D01*
X0029441Y0464343D01*
X0029264Y0464179D01*
X0029083Y0464019D01*
X0028898Y0463863D01*
X0028710Y0463712D01*
X0028517Y0463566D01*
X0028322Y0463425D01*
X0028122Y0463288D01*
X0027920Y0463156D01*
X0027714Y0463029D01*
X0027506Y0462908D01*
X0027294Y0462791D01*
X0027080Y0462680D01*
X0026862Y0462574D01*
X0026643Y0462473D01*
X0026421Y0462378D01*
X0026196Y0462289D01*
X0025970Y0462204D01*
X0025742Y0462126D01*
X0025511Y0462053D01*
X0025279Y0461986D01*
X0025046Y0461924D01*
X0024811Y0461868D01*
X0024574Y0461818D01*
X0024337Y0461774D01*
X0024098Y0461736D01*
X0023859Y0461703D01*
X0023619Y0461676D01*
X0023378Y0461656D01*
X0023137Y0461641D01*
X0022896Y0461632D01*
X0022654Y0461629D01*
X0022412Y0461632D01*
X0022171Y0461641D01*
X0021930Y0461656D01*
X0021689Y0461676D01*
X0021449Y0461703D01*
X0021210Y0461736D01*
X0020971Y0461774D01*
X0020734Y0461818D01*
X0020497Y0461868D01*
X0020262Y0461924D01*
X0020029Y0461986D01*
X0019797Y0462053D01*
X0019566Y0462126D01*
X0019338Y0462204D01*
X0019112Y0462289D01*
X0018887Y0462378D01*
X0018665Y0462473D01*
X0018446Y0462574D01*
X0018228Y0462680D01*
X0018014Y0462791D01*
X0017802Y0462908D01*
X0017594Y0463029D01*
X0017388Y0463156D01*
X0017186Y0463288D01*
X0016986Y0463425D01*
X0016791Y0463566D01*
X0016598Y0463712D01*
X0016410Y0463863D01*
X0016225Y0464019D01*
X0016044Y0464179D01*
X0015867Y0464343D01*
X0015694Y0464512D01*
X0015525Y0464685D01*
X0015361Y0464862D01*
X0015201Y0465043D01*
X0015045Y0465228D01*
X0014894Y0465416D01*
X0014748Y0465609D01*
X0014607Y0465804D01*
X0014470Y0466004D01*
X0014338Y0466206D01*
X0014211Y0466412D01*
X0014090Y0466620D01*
X0013973Y0466832D01*
X0013862Y0467046D01*
X0013756Y0467264D01*
X0013655Y0467483D01*
X0013560Y0467705D01*
X0013471Y0467930D01*
X0013386Y0468156D01*
X0013308Y0468384D01*
X0013235Y0468615D01*
X0013168Y0468847D01*
X0013106Y0469080D01*
X0013050Y0469315D01*
X0013000Y0469552D01*
X0012956Y0469789D01*
X0012918Y0470028D01*
X0012885Y0470267D01*
X0012858Y0470507D01*
X0012838Y0470748D01*
X0012823Y0470989D01*
X0012814Y0471230D01*
X0012811Y0471472D01*
X0082692Y0448835D02*
X0082696Y0449173D01*
X0082709Y0449511D01*
X0082729Y0449849D01*
X0082758Y0450186D01*
X0082796Y0450522D01*
X0082841Y0450857D01*
X0082895Y0451191D01*
X0082957Y0451523D01*
X0083027Y0451854D01*
X0083105Y0452183D01*
X0083191Y0452510D01*
X0083285Y0452835D01*
X0083388Y0453158D01*
X0083498Y0453477D01*
X0083615Y0453794D01*
X0083741Y0454108D01*
X0083874Y0454419D01*
X0084015Y0454727D01*
X0084163Y0455031D01*
X0084319Y0455331D01*
X0084482Y0455627D01*
X0084652Y0455919D01*
X0084830Y0456207D01*
X0085014Y0456491D01*
X0085206Y0456770D01*
X0085404Y0457044D01*
X0085609Y0457313D01*
X0085820Y0457577D01*
X0086038Y0457836D01*
X0086262Y0458089D01*
X0086492Y0458337D01*
X0086728Y0458579D01*
X0086970Y0458815D01*
X0087218Y0459045D01*
X0087471Y0459269D01*
X0087730Y0459487D01*
X0087994Y0459698D01*
X0088263Y0459903D01*
X0088537Y0460101D01*
X0088816Y0460293D01*
X0089100Y0460477D01*
X0089388Y0460655D01*
X0089680Y0460825D01*
X0089976Y0460988D01*
X0090276Y0461144D01*
X0090580Y0461292D01*
X0090888Y0461433D01*
X0091199Y0461566D01*
X0091513Y0461692D01*
X0091830Y0461809D01*
X0092149Y0461919D01*
X0092472Y0462022D01*
X0092797Y0462116D01*
X0093124Y0462202D01*
X0093453Y0462280D01*
X0093784Y0462350D01*
X0094116Y0462412D01*
X0094450Y0462466D01*
X0094785Y0462511D01*
X0095121Y0462549D01*
X0095458Y0462578D01*
X0095796Y0462598D01*
X0096134Y0462611D01*
X0096472Y0462615D01*
X0096810Y0462611D01*
X0097148Y0462598D01*
X0097486Y0462578D01*
X0097823Y0462549D01*
X0098159Y0462511D01*
X0098494Y0462466D01*
X0098828Y0462412D01*
X0099160Y0462350D01*
X0099491Y0462280D01*
X0099820Y0462202D01*
X0100147Y0462116D01*
X0100472Y0462022D01*
X0100795Y0461919D01*
X0101114Y0461809D01*
X0101431Y0461692D01*
X0101745Y0461566D01*
X0102056Y0461433D01*
X0102364Y0461292D01*
X0102668Y0461144D01*
X0102968Y0460988D01*
X0103264Y0460825D01*
X0103556Y0460655D01*
X0103844Y0460477D01*
X0104128Y0460293D01*
X0104407Y0460101D01*
X0104681Y0459903D01*
X0104950Y0459698D01*
X0105214Y0459487D01*
X0105473Y0459269D01*
X0105726Y0459045D01*
X0105974Y0458815D01*
X0106216Y0458579D01*
X0106452Y0458337D01*
X0106682Y0458089D01*
X0106906Y0457836D01*
X0107124Y0457577D01*
X0107335Y0457313D01*
X0107540Y0457044D01*
X0107738Y0456770D01*
X0107930Y0456491D01*
X0108114Y0456207D01*
X0108292Y0455919D01*
X0108462Y0455627D01*
X0108625Y0455331D01*
X0108781Y0455031D01*
X0108929Y0454727D01*
X0109070Y0454419D01*
X0109203Y0454108D01*
X0109329Y0453794D01*
X0109446Y0453477D01*
X0109556Y0453158D01*
X0109659Y0452835D01*
X0109753Y0452510D01*
X0109839Y0452183D01*
X0109917Y0451854D01*
X0109987Y0451523D01*
X0110049Y0451191D01*
X0110103Y0450857D01*
X0110148Y0450522D01*
X0110186Y0450186D01*
X0110215Y0449849D01*
X0110235Y0449511D01*
X0110248Y0449173D01*
X0110252Y0448835D01*
X0110248Y0448497D01*
X0110235Y0448159D01*
X0110215Y0447821D01*
X0110186Y0447484D01*
X0110148Y0447148D01*
X0110103Y0446813D01*
X0110049Y0446479D01*
X0109987Y0446147D01*
X0109917Y0445816D01*
X0109839Y0445487D01*
X0109753Y0445160D01*
X0109659Y0444835D01*
X0109556Y0444512D01*
X0109446Y0444193D01*
X0109329Y0443876D01*
X0109203Y0443562D01*
X0109070Y0443251D01*
X0108929Y0442943D01*
X0108781Y0442639D01*
X0108625Y0442339D01*
X0108462Y0442043D01*
X0108292Y0441751D01*
X0108114Y0441463D01*
X0107930Y0441179D01*
X0107738Y0440900D01*
X0107540Y0440626D01*
X0107335Y0440357D01*
X0107124Y0440093D01*
X0106906Y0439834D01*
X0106682Y0439581D01*
X0106452Y0439333D01*
X0106216Y0439091D01*
X0105974Y0438855D01*
X0105726Y0438625D01*
X0105473Y0438401D01*
X0105214Y0438183D01*
X0104950Y0437972D01*
X0104681Y0437767D01*
X0104407Y0437569D01*
X0104128Y0437377D01*
X0103844Y0437193D01*
X0103556Y0437015D01*
X0103264Y0436845D01*
X0102968Y0436682D01*
X0102668Y0436526D01*
X0102364Y0436378D01*
X0102056Y0436237D01*
X0101745Y0436104D01*
X0101431Y0435978D01*
X0101114Y0435861D01*
X0100795Y0435751D01*
X0100472Y0435648D01*
X0100147Y0435554D01*
X0099820Y0435468D01*
X0099491Y0435390D01*
X0099160Y0435320D01*
X0098828Y0435258D01*
X0098494Y0435204D01*
X0098159Y0435159D01*
X0097823Y0435121D01*
X0097486Y0435092D01*
X0097148Y0435072D01*
X0096810Y0435059D01*
X0096472Y0435055D01*
X0096134Y0435059D01*
X0095796Y0435072D01*
X0095458Y0435092D01*
X0095121Y0435121D01*
X0094785Y0435159D01*
X0094450Y0435204D01*
X0094116Y0435258D01*
X0093784Y0435320D01*
X0093453Y0435390D01*
X0093124Y0435468D01*
X0092797Y0435554D01*
X0092472Y0435648D01*
X0092149Y0435751D01*
X0091830Y0435861D01*
X0091513Y0435978D01*
X0091199Y0436104D01*
X0090888Y0436237D01*
X0090580Y0436378D01*
X0090276Y0436526D01*
X0089976Y0436682D01*
X0089680Y0436845D01*
X0089388Y0437015D01*
X0089100Y0437193D01*
X0088816Y0437377D01*
X0088537Y0437569D01*
X0088263Y0437767D01*
X0087994Y0437972D01*
X0087730Y0438183D01*
X0087471Y0438401D01*
X0087218Y0438625D01*
X0086970Y0438855D01*
X0086728Y0439091D01*
X0086492Y0439333D01*
X0086262Y0439581D01*
X0086038Y0439834D01*
X0085820Y0440093D01*
X0085609Y0440357D01*
X0085404Y0440626D01*
X0085206Y0440900D01*
X0085014Y0441179D01*
X0084830Y0441463D01*
X0084652Y0441751D01*
X0084482Y0442043D01*
X0084319Y0442339D01*
X0084163Y0442639D01*
X0084015Y0442943D01*
X0083874Y0443251D01*
X0083741Y0443562D01*
X0083615Y0443876D01*
X0083498Y0444193D01*
X0083388Y0444512D01*
X0083285Y0444835D01*
X0083191Y0445160D01*
X0083105Y0445487D01*
X0083027Y0445816D01*
X0082957Y0446147D01*
X0082895Y0446479D01*
X0082841Y0446813D01*
X0082796Y0447148D01*
X0082758Y0447484D01*
X0082729Y0447821D01*
X0082709Y0448159D01*
X0082696Y0448497D01*
X0082692Y0448835D01*
X0012811Y0660449D02*
X0012814Y0660691D01*
X0012823Y0660932D01*
X0012838Y0661173D01*
X0012858Y0661414D01*
X0012885Y0661654D01*
X0012918Y0661893D01*
X0012956Y0662132D01*
X0013000Y0662369D01*
X0013050Y0662606D01*
X0013106Y0662841D01*
X0013168Y0663074D01*
X0013235Y0663306D01*
X0013308Y0663537D01*
X0013386Y0663765D01*
X0013471Y0663991D01*
X0013560Y0664216D01*
X0013655Y0664438D01*
X0013756Y0664657D01*
X0013862Y0664875D01*
X0013973Y0665089D01*
X0014090Y0665301D01*
X0014211Y0665509D01*
X0014338Y0665715D01*
X0014470Y0665917D01*
X0014607Y0666117D01*
X0014748Y0666312D01*
X0014894Y0666505D01*
X0015045Y0666693D01*
X0015201Y0666878D01*
X0015361Y0667059D01*
X0015525Y0667236D01*
X0015694Y0667409D01*
X0015867Y0667578D01*
X0016044Y0667742D01*
X0016225Y0667902D01*
X0016410Y0668058D01*
X0016598Y0668209D01*
X0016791Y0668355D01*
X0016986Y0668496D01*
X0017186Y0668633D01*
X0017388Y0668765D01*
X0017594Y0668892D01*
X0017802Y0669013D01*
X0018014Y0669130D01*
X0018228Y0669241D01*
X0018446Y0669347D01*
X0018665Y0669448D01*
X0018887Y0669543D01*
X0019112Y0669632D01*
X0019338Y0669717D01*
X0019566Y0669795D01*
X0019797Y0669868D01*
X0020029Y0669935D01*
X0020262Y0669997D01*
X0020497Y0670053D01*
X0020734Y0670103D01*
X0020971Y0670147D01*
X0021210Y0670185D01*
X0021449Y0670218D01*
X0021689Y0670245D01*
X0021930Y0670265D01*
X0022171Y0670280D01*
X0022412Y0670289D01*
X0022654Y0670292D01*
X0022896Y0670289D01*
X0023137Y0670280D01*
X0023378Y0670265D01*
X0023619Y0670245D01*
X0023859Y0670218D01*
X0024098Y0670185D01*
X0024337Y0670147D01*
X0024574Y0670103D01*
X0024811Y0670053D01*
X0025046Y0669997D01*
X0025279Y0669935D01*
X0025511Y0669868D01*
X0025742Y0669795D01*
X0025970Y0669717D01*
X0026196Y0669632D01*
X0026421Y0669543D01*
X0026643Y0669448D01*
X0026862Y0669347D01*
X0027080Y0669241D01*
X0027294Y0669130D01*
X0027506Y0669013D01*
X0027714Y0668892D01*
X0027920Y0668765D01*
X0028122Y0668633D01*
X0028322Y0668496D01*
X0028517Y0668355D01*
X0028710Y0668209D01*
X0028898Y0668058D01*
X0029083Y0667902D01*
X0029264Y0667742D01*
X0029441Y0667578D01*
X0029614Y0667409D01*
X0029783Y0667236D01*
X0029947Y0667059D01*
X0030107Y0666878D01*
X0030263Y0666693D01*
X0030414Y0666505D01*
X0030560Y0666312D01*
X0030701Y0666117D01*
X0030838Y0665917D01*
X0030970Y0665715D01*
X0031097Y0665509D01*
X0031218Y0665301D01*
X0031335Y0665089D01*
X0031446Y0664875D01*
X0031552Y0664657D01*
X0031653Y0664438D01*
X0031748Y0664216D01*
X0031837Y0663991D01*
X0031922Y0663765D01*
X0032000Y0663537D01*
X0032073Y0663306D01*
X0032140Y0663074D01*
X0032202Y0662841D01*
X0032258Y0662606D01*
X0032308Y0662369D01*
X0032352Y0662132D01*
X0032390Y0661893D01*
X0032423Y0661654D01*
X0032450Y0661414D01*
X0032470Y0661173D01*
X0032485Y0660932D01*
X0032494Y0660691D01*
X0032497Y0660449D01*
X0032494Y0660207D01*
X0032485Y0659966D01*
X0032470Y0659725D01*
X0032450Y0659484D01*
X0032423Y0659244D01*
X0032390Y0659005D01*
X0032352Y0658766D01*
X0032308Y0658529D01*
X0032258Y0658292D01*
X0032202Y0658057D01*
X0032140Y0657824D01*
X0032073Y0657592D01*
X0032000Y0657361D01*
X0031922Y0657133D01*
X0031837Y0656907D01*
X0031748Y0656682D01*
X0031653Y0656460D01*
X0031552Y0656241D01*
X0031446Y0656023D01*
X0031335Y0655809D01*
X0031218Y0655597D01*
X0031097Y0655389D01*
X0030970Y0655183D01*
X0030838Y0654981D01*
X0030701Y0654781D01*
X0030560Y0654586D01*
X0030414Y0654393D01*
X0030263Y0654205D01*
X0030107Y0654020D01*
X0029947Y0653839D01*
X0029783Y0653662D01*
X0029614Y0653489D01*
X0029441Y0653320D01*
X0029264Y0653156D01*
X0029083Y0652996D01*
X0028898Y0652840D01*
X0028710Y0652689D01*
X0028517Y0652543D01*
X0028322Y0652402D01*
X0028122Y0652265D01*
X0027920Y0652133D01*
X0027714Y0652006D01*
X0027506Y0651885D01*
X0027294Y0651768D01*
X0027080Y0651657D01*
X0026862Y0651551D01*
X0026643Y0651450D01*
X0026421Y0651355D01*
X0026196Y0651266D01*
X0025970Y0651181D01*
X0025742Y0651103D01*
X0025511Y0651030D01*
X0025279Y0650963D01*
X0025046Y0650901D01*
X0024811Y0650845D01*
X0024574Y0650795D01*
X0024337Y0650751D01*
X0024098Y0650713D01*
X0023859Y0650680D01*
X0023619Y0650653D01*
X0023378Y0650633D01*
X0023137Y0650618D01*
X0022896Y0650609D01*
X0022654Y0650606D01*
X0022412Y0650609D01*
X0022171Y0650618D01*
X0021930Y0650633D01*
X0021689Y0650653D01*
X0021449Y0650680D01*
X0021210Y0650713D01*
X0020971Y0650751D01*
X0020734Y0650795D01*
X0020497Y0650845D01*
X0020262Y0650901D01*
X0020029Y0650963D01*
X0019797Y0651030D01*
X0019566Y0651103D01*
X0019338Y0651181D01*
X0019112Y0651266D01*
X0018887Y0651355D01*
X0018665Y0651450D01*
X0018446Y0651551D01*
X0018228Y0651657D01*
X0018014Y0651768D01*
X0017802Y0651885D01*
X0017594Y0652006D01*
X0017388Y0652133D01*
X0017186Y0652265D01*
X0016986Y0652402D01*
X0016791Y0652543D01*
X0016598Y0652689D01*
X0016410Y0652840D01*
X0016225Y0652996D01*
X0016044Y0653156D01*
X0015867Y0653320D01*
X0015694Y0653489D01*
X0015525Y0653662D01*
X0015361Y0653839D01*
X0015201Y0654020D01*
X0015045Y0654205D01*
X0014894Y0654393D01*
X0014748Y0654586D01*
X0014607Y0654781D01*
X0014470Y0654981D01*
X0014338Y0655183D01*
X0014211Y0655389D01*
X0014090Y0655597D01*
X0013973Y0655809D01*
X0013862Y0656023D01*
X0013756Y0656241D01*
X0013655Y0656460D01*
X0013560Y0656682D01*
X0013471Y0656907D01*
X0013386Y0657133D01*
X0013308Y0657361D01*
X0013235Y0657592D01*
X0013168Y0657824D01*
X0013106Y0658057D01*
X0013050Y0658292D01*
X0013000Y0658529D01*
X0012956Y0658766D01*
X0012918Y0659005D01*
X0012885Y0659244D01*
X0012858Y0659484D01*
X0012838Y0659725D01*
X0012823Y0659966D01*
X0012814Y0660207D01*
X0012811Y0660449D01*
X0063992Y0689976D02*
X0063994Y0690169D01*
X0064001Y0690362D01*
X0064013Y0690555D01*
X0064030Y0690748D01*
X0064051Y0690940D01*
X0064077Y0691131D01*
X0064108Y0691322D01*
X0064143Y0691512D01*
X0064183Y0691701D01*
X0064228Y0691889D01*
X0064277Y0692076D01*
X0064331Y0692262D01*
X0064389Y0692446D01*
X0064452Y0692629D01*
X0064520Y0692810D01*
X0064591Y0692989D01*
X0064668Y0693167D01*
X0064748Y0693343D01*
X0064833Y0693516D01*
X0064922Y0693688D01*
X0065015Y0693857D01*
X0065112Y0694024D01*
X0065214Y0694189D01*
X0065319Y0694351D01*
X0065428Y0694510D01*
X0065542Y0694667D01*
X0065659Y0694820D01*
X0065779Y0694971D01*
X0065904Y0695119D01*
X0066032Y0695264D01*
X0066163Y0695405D01*
X0066298Y0695544D01*
X0066437Y0695679D01*
X0066578Y0695810D01*
X0066723Y0695938D01*
X0066871Y0696063D01*
X0067022Y0696183D01*
X0067175Y0696300D01*
X0067332Y0696414D01*
X0067491Y0696523D01*
X0067653Y0696628D01*
X0067818Y0696730D01*
X0067985Y0696827D01*
X0068154Y0696920D01*
X0068326Y0697009D01*
X0068499Y0697094D01*
X0068675Y0697174D01*
X0068853Y0697251D01*
X0069032Y0697322D01*
X0069213Y0697390D01*
X0069396Y0697453D01*
X0069580Y0697511D01*
X0069766Y0697565D01*
X0069953Y0697614D01*
X0070141Y0697659D01*
X0070330Y0697699D01*
X0070520Y0697734D01*
X0070711Y0697765D01*
X0070902Y0697791D01*
X0071094Y0697812D01*
X0071287Y0697829D01*
X0071480Y0697841D01*
X0071673Y0697848D01*
X0071866Y0697850D01*
X0072059Y0697848D01*
X0072252Y0697841D01*
X0072445Y0697829D01*
X0072638Y0697812D01*
X0072830Y0697791D01*
X0073021Y0697765D01*
X0073212Y0697734D01*
X0073402Y0697699D01*
X0073591Y0697659D01*
X0073779Y0697614D01*
X0073966Y0697565D01*
X0074152Y0697511D01*
X0074336Y0697453D01*
X0074519Y0697390D01*
X0074700Y0697322D01*
X0074879Y0697251D01*
X0075057Y0697174D01*
X0075233Y0697094D01*
X0075406Y0697009D01*
X0075578Y0696920D01*
X0075747Y0696827D01*
X0075914Y0696730D01*
X0076079Y0696628D01*
X0076241Y0696523D01*
X0076400Y0696414D01*
X0076557Y0696300D01*
X0076710Y0696183D01*
X0076861Y0696063D01*
X0077009Y0695938D01*
X0077154Y0695810D01*
X0077295Y0695679D01*
X0077434Y0695544D01*
X0077569Y0695405D01*
X0077700Y0695264D01*
X0077828Y0695119D01*
X0077953Y0694971D01*
X0078073Y0694820D01*
X0078190Y0694667D01*
X0078304Y0694510D01*
X0078413Y0694351D01*
X0078518Y0694189D01*
X0078620Y0694024D01*
X0078717Y0693857D01*
X0078810Y0693688D01*
X0078899Y0693516D01*
X0078984Y0693343D01*
X0079064Y0693167D01*
X0079141Y0692989D01*
X0079212Y0692810D01*
X0079280Y0692629D01*
X0079343Y0692446D01*
X0079401Y0692262D01*
X0079455Y0692076D01*
X0079504Y0691889D01*
X0079549Y0691701D01*
X0079589Y0691512D01*
X0079624Y0691322D01*
X0079655Y0691131D01*
X0079681Y0690940D01*
X0079702Y0690748D01*
X0079719Y0690555D01*
X0079731Y0690362D01*
X0079738Y0690169D01*
X0079740Y0689976D01*
X0079738Y0689783D01*
X0079731Y0689590D01*
X0079719Y0689397D01*
X0079702Y0689204D01*
X0079681Y0689012D01*
X0079655Y0688821D01*
X0079624Y0688630D01*
X0079589Y0688440D01*
X0079549Y0688251D01*
X0079504Y0688063D01*
X0079455Y0687876D01*
X0079401Y0687690D01*
X0079343Y0687506D01*
X0079280Y0687323D01*
X0079212Y0687142D01*
X0079141Y0686963D01*
X0079064Y0686785D01*
X0078984Y0686609D01*
X0078899Y0686436D01*
X0078810Y0686264D01*
X0078717Y0686095D01*
X0078620Y0685928D01*
X0078518Y0685763D01*
X0078413Y0685601D01*
X0078304Y0685442D01*
X0078190Y0685285D01*
X0078073Y0685132D01*
X0077953Y0684981D01*
X0077828Y0684833D01*
X0077700Y0684688D01*
X0077569Y0684547D01*
X0077434Y0684408D01*
X0077295Y0684273D01*
X0077154Y0684142D01*
X0077009Y0684014D01*
X0076861Y0683889D01*
X0076710Y0683769D01*
X0076557Y0683652D01*
X0076400Y0683538D01*
X0076241Y0683429D01*
X0076079Y0683324D01*
X0075914Y0683222D01*
X0075747Y0683125D01*
X0075578Y0683032D01*
X0075406Y0682943D01*
X0075233Y0682858D01*
X0075057Y0682778D01*
X0074879Y0682701D01*
X0074700Y0682630D01*
X0074519Y0682562D01*
X0074336Y0682499D01*
X0074152Y0682441D01*
X0073966Y0682387D01*
X0073779Y0682338D01*
X0073591Y0682293D01*
X0073402Y0682253D01*
X0073212Y0682218D01*
X0073021Y0682187D01*
X0072830Y0682161D01*
X0072638Y0682140D01*
X0072445Y0682123D01*
X0072252Y0682111D01*
X0072059Y0682104D01*
X0071866Y0682102D01*
X0071673Y0682104D01*
X0071480Y0682111D01*
X0071287Y0682123D01*
X0071094Y0682140D01*
X0070902Y0682161D01*
X0070711Y0682187D01*
X0070520Y0682218D01*
X0070330Y0682253D01*
X0070141Y0682293D01*
X0069953Y0682338D01*
X0069766Y0682387D01*
X0069580Y0682441D01*
X0069396Y0682499D01*
X0069213Y0682562D01*
X0069032Y0682630D01*
X0068853Y0682701D01*
X0068675Y0682778D01*
X0068499Y0682858D01*
X0068326Y0682943D01*
X0068154Y0683032D01*
X0067985Y0683125D01*
X0067818Y0683222D01*
X0067653Y0683324D01*
X0067491Y0683429D01*
X0067332Y0683538D01*
X0067175Y0683652D01*
X0067022Y0683769D01*
X0066871Y0683889D01*
X0066723Y0684014D01*
X0066578Y0684142D01*
X0066437Y0684273D01*
X0066298Y0684408D01*
X0066163Y0684547D01*
X0066032Y0684688D01*
X0065904Y0684833D01*
X0065779Y0684981D01*
X0065659Y0685132D01*
X0065542Y0685285D01*
X0065428Y0685442D01*
X0065319Y0685601D01*
X0065214Y0685763D01*
X0065112Y0685928D01*
X0065015Y0686095D01*
X0064922Y0686264D01*
X0064833Y0686436D01*
X0064748Y0686609D01*
X0064668Y0686785D01*
X0064591Y0686963D01*
X0064520Y0687142D01*
X0064452Y0687323D01*
X0064389Y0687506D01*
X0064331Y0687690D01*
X0064277Y0687876D01*
X0064228Y0688063D01*
X0064183Y0688251D01*
X0064143Y0688440D01*
X0064108Y0688630D01*
X0064077Y0688821D01*
X0064051Y0689012D01*
X0064030Y0689204D01*
X0064013Y0689397D01*
X0064001Y0689590D01*
X0063994Y0689783D01*
X0063992Y0689976D01*
X0108283Y0694898D02*
X0108287Y0695236D01*
X0108300Y0695574D01*
X0108320Y0695912D01*
X0108349Y0696249D01*
X0108387Y0696585D01*
X0108432Y0696920D01*
X0108486Y0697254D01*
X0108548Y0697586D01*
X0108618Y0697917D01*
X0108696Y0698246D01*
X0108782Y0698573D01*
X0108876Y0698898D01*
X0108979Y0699221D01*
X0109089Y0699540D01*
X0109206Y0699857D01*
X0109332Y0700171D01*
X0109465Y0700482D01*
X0109606Y0700790D01*
X0109754Y0701094D01*
X0109910Y0701394D01*
X0110073Y0701690D01*
X0110243Y0701982D01*
X0110421Y0702270D01*
X0110605Y0702554D01*
X0110797Y0702833D01*
X0110995Y0703107D01*
X0111200Y0703376D01*
X0111411Y0703640D01*
X0111629Y0703899D01*
X0111853Y0704152D01*
X0112083Y0704400D01*
X0112319Y0704642D01*
X0112561Y0704878D01*
X0112809Y0705108D01*
X0113062Y0705332D01*
X0113321Y0705550D01*
X0113585Y0705761D01*
X0113854Y0705966D01*
X0114128Y0706164D01*
X0114407Y0706356D01*
X0114691Y0706540D01*
X0114979Y0706718D01*
X0115271Y0706888D01*
X0115567Y0707051D01*
X0115867Y0707207D01*
X0116171Y0707355D01*
X0116479Y0707496D01*
X0116790Y0707629D01*
X0117104Y0707755D01*
X0117421Y0707872D01*
X0117740Y0707982D01*
X0118063Y0708085D01*
X0118388Y0708179D01*
X0118715Y0708265D01*
X0119044Y0708343D01*
X0119375Y0708413D01*
X0119707Y0708475D01*
X0120041Y0708529D01*
X0120376Y0708574D01*
X0120712Y0708612D01*
X0121049Y0708641D01*
X0121387Y0708661D01*
X0121725Y0708674D01*
X0122063Y0708678D01*
X0122401Y0708674D01*
X0122739Y0708661D01*
X0123077Y0708641D01*
X0123414Y0708612D01*
X0123750Y0708574D01*
X0124085Y0708529D01*
X0124419Y0708475D01*
X0124751Y0708413D01*
X0125082Y0708343D01*
X0125411Y0708265D01*
X0125738Y0708179D01*
X0126063Y0708085D01*
X0126386Y0707982D01*
X0126705Y0707872D01*
X0127022Y0707755D01*
X0127336Y0707629D01*
X0127647Y0707496D01*
X0127955Y0707355D01*
X0128259Y0707207D01*
X0128559Y0707051D01*
X0128855Y0706888D01*
X0129147Y0706718D01*
X0129435Y0706540D01*
X0129719Y0706356D01*
X0129998Y0706164D01*
X0130272Y0705966D01*
X0130541Y0705761D01*
X0130805Y0705550D01*
X0131064Y0705332D01*
X0131317Y0705108D01*
X0131565Y0704878D01*
X0131807Y0704642D01*
X0132043Y0704400D01*
X0132273Y0704152D01*
X0132497Y0703899D01*
X0132715Y0703640D01*
X0132926Y0703376D01*
X0133131Y0703107D01*
X0133329Y0702833D01*
X0133521Y0702554D01*
X0133705Y0702270D01*
X0133883Y0701982D01*
X0134053Y0701690D01*
X0134216Y0701394D01*
X0134372Y0701094D01*
X0134520Y0700790D01*
X0134661Y0700482D01*
X0134794Y0700171D01*
X0134920Y0699857D01*
X0135037Y0699540D01*
X0135147Y0699221D01*
X0135250Y0698898D01*
X0135344Y0698573D01*
X0135430Y0698246D01*
X0135508Y0697917D01*
X0135578Y0697586D01*
X0135640Y0697254D01*
X0135694Y0696920D01*
X0135739Y0696585D01*
X0135777Y0696249D01*
X0135806Y0695912D01*
X0135826Y0695574D01*
X0135839Y0695236D01*
X0135843Y0694898D01*
X0135839Y0694560D01*
X0135826Y0694222D01*
X0135806Y0693884D01*
X0135777Y0693547D01*
X0135739Y0693211D01*
X0135694Y0692876D01*
X0135640Y0692542D01*
X0135578Y0692210D01*
X0135508Y0691879D01*
X0135430Y0691550D01*
X0135344Y0691223D01*
X0135250Y0690898D01*
X0135147Y0690575D01*
X0135037Y0690256D01*
X0134920Y0689939D01*
X0134794Y0689625D01*
X0134661Y0689314D01*
X0134520Y0689006D01*
X0134372Y0688702D01*
X0134216Y0688402D01*
X0134053Y0688106D01*
X0133883Y0687814D01*
X0133705Y0687526D01*
X0133521Y0687242D01*
X0133329Y0686963D01*
X0133131Y0686689D01*
X0132926Y0686420D01*
X0132715Y0686156D01*
X0132497Y0685897D01*
X0132273Y0685644D01*
X0132043Y0685396D01*
X0131807Y0685154D01*
X0131565Y0684918D01*
X0131317Y0684688D01*
X0131064Y0684464D01*
X0130805Y0684246D01*
X0130541Y0684035D01*
X0130272Y0683830D01*
X0129998Y0683632D01*
X0129719Y0683440D01*
X0129435Y0683256D01*
X0129147Y0683078D01*
X0128855Y0682908D01*
X0128559Y0682745D01*
X0128259Y0682589D01*
X0127955Y0682441D01*
X0127647Y0682300D01*
X0127336Y0682167D01*
X0127022Y0682041D01*
X0126705Y0681924D01*
X0126386Y0681814D01*
X0126063Y0681711D01*
X0125738Y0681617D01*
X0125411Y0681531D01*
X0125082Y0681453D01*
X0124751Y0681383D01*
X0124419Y0681321D01*
X0124085Y0681267D01*
X0123750Y0681222D01*
X0123414Y0681184D01*
X0123077Y0681155D01*
X0122739Y0681135D01*
X0122401Y0681122D01*
X0122063Y0681118D01*
X0121725Y0681122D01*
X0121387Y0681135D01*
X0121049Y0681155D01*
X0120712Y0681184D01*
X0120376Y0681222D01*
X0120041Y0681267D01*
X0119707Y0681321D01*
X0119375Y0681383D01*
X0119044Y0681453D01*
X0118715Y0681531D01*
X0118388Y0681617D01*
X0118063Y0681711D01*
X0117740Y0681814D01*
X0117421Y0681924D01*
X0117104Y0682041D01*
X0116790Y0682167D01*
X0116479Y0682300D01*
X0116171Y0682441D01*
X0115867Y0682589D01*
X0115567Y0682745D01*
X0115271Y0682908D01*
X0114979Y0683078D01*
X0114691Y0683256D01*
X0114407Y0683440D01*
X0114128Y0683632D01*
X0113854Y0683830D01*
X0113585Y0684035D01*
X0113321Y0684246D01*
X0113062Y0684464D01*
X0112809Y0684688D01*
X0112561Y0684918D01*
X0112319Y0685154D01*
X0112083Y0685396D01*
X0111853Y0685644D01*
X0111629Y0685897D01*
X0111411Y0686156D01*
X0111200Y0686420D01*
X0110995Y0686689D01*
X0110797Y0686963D01*
X0110605Y0687242D01*
X0110421Y0687526D01*
X0110243Y0687814D01*
X0110073Y0688106D01*
X0109910Y0688402D01*
X0109754Y0688702D01*
X0109606Y0689006D01*
X0109465Y0689314D01*
X0109332Y0689625D01*
X0109206Y0689939D01*
X0109089Y0690256D01*
X0108979Y0690575D01*
X0108876Y0690898D01*
X0108782Y0691223D01*
X0108696Y0691550D01*
X0108618Y0691879D01*
X0108548Y0692210D01*
X0108486Y0692542D01*
X0108432Y0692876D01*
X0108387Y0693211D01*
X0108349Y0693547D01*
X0108320Y0693884D01*
X0108300Y0694222D01*
X0108287Y0694560D01*
X0108283Y0694898D01*
X0276984Y0692850D02*
X0276986Y0692934D01*
X0276992Y0693017D01*
X0277002Y0693100D01*
X0277016Y0693183D01*
X0277033Y0693265D01*
X0277055Y0693346D01*
X0277080Y0693425D01*
X0277109Y0693504D01*
X0277142Y0693581D01*
X0277178Y0693656D01*
X0277218Y0693730D01*
X0277261Y0693802D01*
X0277308Y0693871D01*
X0277358Y0693938D01*
X0277411Y0694003D01*
X0277467Y0694065D01*
X0277525Y0694125D01*
X0277587Y0694182D01*
X0277651Y0694235D01*
X0277718Y0694286D01*
X0277787Y0694333D01*
X0277858Y0694378D01*
X0277931Y0694418D01*
X0278006Y0694455D01*
X0278083Y0694489D01*
X0278161Y0694519D01*
X0278240Y0694545D01*
X0278321Y0694568D01*
X0278403Y0694586D01*
X0278485Y0694601D01*
X0278568Y0694612D01*
X0278651Y0694619D01*
X0278735Y0694622D01*
X0278819Y0694621D01*
X0278902Y0694616D01*
X0278986Y0694607D01*
X0279068Y0694594D01*
X0279150Y0694578D01*
X0279231Y0694557D01*
X0279312Y0694533D01*
X0279390Y0694505D01*
X0279468Y0694473D01*
X0279544Y0694437D01*
X0279618Y0694398D01*
X0279690Y0694356D01*
X0279760Y0694310D01*
X0279828Y0694261D01*
X0279893Y0694209D01*
X0279956Y0694154D01*
X0280016Y0694096D01*
X0280074Y0694035D01*
X0280128Y0693971D01*
X0280180Y0693905D01*
X0280228Y0693837D01*
X0280273Y0693766D01*
X0280314Y0693693D01*
X0280353Y0693619D01*
X0280387Y0693543D01*
X0280418Y0693465D01*
X0280445Y0693386D01*
X0280469Y0693305D01*
X0280488Y0693224D01*
X0280504Y0693142D01*
X0280516Y0693059D01*
X0280524Y0692975D01*
X0280528Y0692892D01*
X0280528Y0692808D01*
X0280524Y0692725D01*
X0280516Y0692641D01*
X0280504Y0692558D01*
X0280488Y0692476D01*
X0280469Y0692395D01*
X0280445Y0692314D01*
X0280418Y0692235D01*
X0280387Y0692157D01*
X0280353Y0692081D01*
X0280314Y0692007D01*
X0280273Y0691934D01*
X0280228Y0691863D01*
X0280180Y0691795D01*
X0280128Y0691729D01*
X0280074Y0691665D01*
X0280016Y0691604D01*
X0279956Y0691546D01*
X0279893Y0691491D01*
X0279828Y0691439D01*
X0279760Y0691390D01*
X0279690Y0691344D01*
X0279618Y0691302D01*
X0279544Y0691263D01*
X0279468Y0691227D01*
X0279390Y0691195D01*
X0279312Y0691167D01*
X0279231Y0691143D01*
X0279150Y0691122D01*
X0279068Y0691106D01*
X0278986Y0691093D01*
X0278902Y0691084D01*
X0278819Y0691079D01*
X0278735Y0691078D01*
X0278651Y0691081D01*
X0278568Y0691088D01*
X0278485Y0691099D01*
X0278403Y0691114D01*
X0278321Y0691132D01*
X0278240Y0691155D01*
X0278161Y0691181D01*
X0278083Y0691211D01*
X0278006Y0691245D01*
X0277931Y0691282D01*
X0277858Y0691322D01*
X0277787Y0691367D01*
X0277718Y0691414D01*
X0277651Y0691465D01*
X0277587Y0691518D01*
X0277525Y0691575D01*
X0277467Y0691635D01*
X0277411Y0691697D01*
X0277358Y0691762D01*
X0277308Y0691829D01*
X0277261Y0691898D01*
X0277218Y0691970D01*
X0277178Y0692044D01*
X0277142Y0692119D01*
X0277109Y0692196D01*
X0277080Y0692275D01*
X0277055Y0692354D01*
X0277033Y0692435D01*
X0277016Y0692517D01*
X0277002Y0692600D01*
X0276992Y0692683D01*
X0276986Y0692766D01*
X0276984Y0692850D01*
X0294307Y0692850D02*
X0294309Y0692934D01*
X0294315Y0693017D01*
X0294325Y0693100D01*
X0294339Y0693183D01*
X0294356Y0693265D01*
X0294378Y0693346D01*
X0294403Y0693425D01*
X0294432Y0693504D01*
X0294465Y0693581D01*
X0294501Y0693656D01*
X0294541Y0693730D01*
X0294584Y0693802D01*
X0294631Y0693871D01*
X0294681Y0693938D01*
X0294734Y0694003D01*
X0294790Y0694065D01*
X0294848Y0694125D01*
X0294910Y0694182D01*
X0294974Y0694235D01*
X0295041Y0694286D01*
X0295110Y0694333D01*
X0295181Y0694378D01*
X0295254Y0694418D01*
X0295329Y0694455D01*
X0295406Y0694489D01*
X0295484Y0694519D01*
X0295563Y0694545D01*
X0295644Y0694568D01*
X0295726Y0694586D01*
X0295808Y0694601D01*
X0295891Y0694612D01*
X0295974Y0694619D01*
X0296058Y0694622D01*
X0296142Y0694621D01*
X0296225Y0694616D01*
X0296309Y0694607D01*
X0296391Y0694594D01*
X0296473Y0694578D01*
X0296554Y0694557D01*
X0296635Y0694533D01*
X0296713Y0694505D01*
X0296791Y0694473D01*
X0296867Y0694437D01*
X0296941Y0694398D01*
X0297013Y0694356D01*
X0297083Y0694310D01*
X0297151Y0694261D01*
X0297216Y0694209D01*
X0297279Y0694154D01*
X0297339Y0694096D01*
X0297397Y0694035D01*
X0297451Y0693971D01*
X0297503Y0693905D01*
X0297551Y0693837D01*
X0297596Y0693766D01*
X0297637Y0693693D01*
X0297676Y0693619D01*
X0297710Y0693543D01*
X0297741Y0693465D01*
X0297768Y0693386D01*
X0297792Y0693305D01*
X0297811Y0693224D01*
X0297827Y0693142D01*
X0297839Y0693059D01*
X0297847Y0692975D01*
X0297851Y0692892D01*
X0297851Y0692808D01*
X0297847Y0692725D01*
X0297839Y0692641D01*
X0297827Y0692558D01*
X0297811Y0692476D01*
X0297792Y0692395D01*
X0297768Y0692314D01*
X0297741Y0692235D01*
X0297710Y0692157D01*
X0297676Y0692081D01*
X0297637Y0692007D01*
X0297596Y0691934D01*
X0297551Y0691863D01*
X0297503Y0691795D01*
X0297451Y0691729D01*
X0297397Y0691665D01*
X0297339Y0691604D01*
X0297279Y0691546D01*
X0297216Y0691491D01*
X0297151Y0691439D01*
X0297083Y0691390D01*
X0297013Y0691344D01*
X0296941Y0691302D01*
X0296867Y0691263D01*
X0296791Y0691227D01*
X0296713Y0691195D01*
X0296635Y0691167D01*
X0296554Y0691143D01*
X0296473Y0691122D01*
X0296391Y0691106D01*
X0296309Y0691093D01*
X0296225Y0691084D01*
X0296142Y0691079D01*
X0296058Y0691078D01*
X0295974Y0691081D01*
X0295891Y0691088D01*
X0295808Y0691099D01*
X0295726Y0691114D01*
X0295644Y0691132D01*
X0295563Y0691155D01*
X0295484Y0691181D01*
X0295406Y0691211D01*
X0295329Y0691245D01*
X0295254Y0691282D01*
X0295181Y0691322D01*
X0295110Y0691367D01*
X0295041Y0691414D01*
X0294974Y0691465D01*
X0294910Y0691518D01*
X0294848Y0691575D01*
X0294790Y0691635D01*
X0294734Y0691697D01*
X0294681Y0691762D01*
X0294631Y0691829D01*
X0294584Y0691898D01*
X0294541Y0691970D01*
X0294501Y0692044D01*
X0294465Y0692119D01*
X0294432Y0692196D01*
X0294403Y0692275D01*
X0294378Y0692354D01*
X0294356Y0692435D01*
X0294339Y0692517D01*
X0294325Y0692600D01*
X0294315Y0692683D01*
X0294309Y0692766D01*
X0294307Y0692850D01*
X0438992Y0694898D02*
X0438996Y0695236D01*
X0439009Y0695574D01*
X0439029Y0695912D01*
X0439058Y0696249D01*
X0439096Y0696585D01*
X0439141Y0696920D01*
X0439195Y0697254D01*
X0439257Y0697586D01*
X0439327Y0697917D01*
X0439405Y0698246D01*
X0439491Y0698573D01*
X0439585Y0698898D01*
X0439688Y0699221D01*
X0439798Y0699540D01*
X0439915Y0699857D01*
X0440041Y0700171D01*
X0440174Y0700482D01*
X0440315Y0700790D01*
X0440463Y0701094D01*
X0440619Y0701394D01*
X0440782Y0701690D01*
X0440952Y0701982D01*
X0441130Y0702270D01*
X0441314Y0702554D01*
X0441506Y0702833D01*
X0441704Y0703107D01*
X0441909Y0703376D01*
X0442120Y0703640D01*
X0442338Y0703899D01*
X0442562Y0704152D01*
X0442792Y0704400D01*
X0443028Y0704642D01*
X0443270Y0704878D01*
X0443518Y0705108D01*
X0443771Y0705332D01*
X0444030Y0705550D01*
X0444294Y0705761D01*
X0444563Y0705966D01*
X0444837Y0706164D01*
X0445116Y0706356D01*
X0445400Y0706540D01*
X0445688Y0706718D01*
X0445980Y0706888D01*
X0446276Y0707051D01*
X0446576Y0707207D01*
X0446880Y0707355D01*
X0447188Y0707496D01*
X0447499Y0707629D01*
X0447813Y0707755D01*
X0448130Y0707872D01*
X0448449Y0707982D01*
X0448772Y0708085D01*
X0449097Y0708179D01*
X0449424Y0708265D01*
X0449753Y0708343D01*
X0450084Y0708413D01*
X0450416Y0708475D01*
X0450750Y0708529D01*
X0451085Y0708574D01*
X0451421Y0708612D01*
X0451758Y0708641D01*
X0452096Y0708661D01*
X0452434Y0708674D01*
X0452772Y0708678D01*
X0453110Y0708674D01*
X0453448Y0708661D01*
X0453786Y0708641D01*
X0454123Y0708612D01*
X0454459Y0708574D01*
X0454794Y0708529D01*
X0455128Y0708475D01*
X0455460Y0708413D01*
X0455791Y0708343D01*
X0456120Y0708265D01*
X0456447Y0708179D01*
X0456772Y0708085D01*
X0457095Y0707982D01*
X0457414Y0707872D01*
X0457731Y0707755D01*
X0458045Y0707629D01*
X0458356Y0707496D01*
X0458664Y0707355D01*
X0458968Y0707207D01*
X0459268Y0707051D01*
X0459564Y0706888D01*
X0459856Y0706718D01*
X0460144Y0706540D01*
X0460428Y0706356D01*
X0460707Y0706164D01*
X0460981Y0705966D01*
X0461250Y0705761D01*
X0461514Y0705550D01*
X0461773Y0705332D01*
X0462026Y0705108D01*
X0462274Y0704878D01*
X0462516Y0704642D01*
X0462752Y0704400D01*
X0462982Y0704152D01*
X0463206Y0703899D01*
X0463424Y0703640D01*
X0463635Y0703376D01*
X0463840Y0703107D01*
X0464038Y0702833D01*
X0464230Y0702554D01*
X0464414Y0702270D01*
X0464592Y0701982D01*
X0464762Y0701690D01*
X0464925Y0701394D01*
X0465081Y0701094D01*
X0465229Y0700790D01*
X0465370Y0700482D01*
X0465503Y0700171D01*
X0465629Y0699857D01*
X0465746Y0699540D01*
X0465856Y0699221D01*
X0465959Y0698898D01*
X0466053Y0698573D01*
X0466139Y0698246D01*
X0466217Y0697917D01*
X0466287Y0697586D01*
X0466349Y0697254D01*
X0466403Y0696920D01*
X0466448Y0696585D01*
X0466486Y0696249D01*
X0466515Y0695912D01*
X0466535Y0695574D01*
X0466548Y0695236D01*
X0466552Y0694898D01*
X0466548Y0694560D01*
X0466535Y0694222D01*
X0466515Y0693884D01*
X0466486Y0693547D01*
X0466448Y0693211D01*
X0466403Y0692876D01*
X0466349Y0692542D01*
X0466287Y0692210D01*
X0466217Y0691879D01*
X0466139Y0691550D01*
X0466053Y0691223D01*
X0465959Y0690898D01*
X0465856Y0690575D01*
X0465746Y0690256D01*
X0465629Y0689939D01*
X0465503Y0689625D01*
X0465370Y0689314D01*
X0465229Y0689006D01*
X0465081Y0688702D01*
X0464925Y0688402D01*
X0464762Y0688106D01*
X0464592Y0687814D01*
X0464414Y0687526D01*
X0464230Y0687242D01*
X0464038Y0686963D01*
X0463840Y0686689D01*
X0463635Y0686420D01*
X0463424Y0686156D01*
X0463206Y0685897D01*
X0462982Y0685644D01*
X0462752Y0685396D01*
X0462516Y0685154D01*
X0462274Y0684918D01*
X0462026Y0684688D01*
X0461773Y0684464D01*
X0461514Y0684246D01*
X0461250Y0684035D01*
X0460981Y0683830D01*
X0460707Y0683632D01*
X0460428Y0683440D01*
X0460144Y0683256D01*
X0459856Y0683078D01*
X0459564Y0682908D01*
X0459268Y0682745D01*
X0458968Y0682589D01*
X0458664Y0682441D01*
X0458356Y0682300D01*
X0458045Y0682167D01*
X0457731Y0682041D01*
X0457414Y0681924D01*
X0457095Y0681814D01*
X0456772Y0681711D01*
X0456447Y0681617D01*
X0456120Y0681531D01*
X0455791Y0681453D01*
X0455460Y0681383D01*
X0455128Y0681321D01*
X0454794Y0681267D01*
X0454459Y0681222D01*
X0454123Y0681184D01*
X0453786Y0681155D01*
X0453448Y0681135D01*
X0453110Y0681122D01*
X0452772Y0681118D01*
X0452434Y0681122D01*
X0452096Y0681135D01*
X0451758Y0681155D01*
X0451421Y0681184D01*
X0451085Y0681222D01*
X0450750Y0681267D01*
X0450416Y0681321D01*
X0450084Y0681383D01*
X0449753Y0681453D01*
X0449424Y0681531D01*
X0449097Y0681617D01*
X0448772Y0681711D01*
X0448449Y0681814D01*
X0448130Y0681924D01*
X0447813Y0682041D01*
X0447499Y0682167D01*
X0447188Y0682300D01*
X0446880Y0682441D01*
X0446576Y0682589D01*
X0446276Y0682745D01*
X0445980Y0682908D01*
X0445688Y0683078D01*
X0445400Y0683256D01*
X0445116Y0683440D01*
X0444837Y0683632D01*
X0444563Y0683830D01*
X0444294Y0684035D01*
X0444030Y0684246D01*
X0443771Y0684464D01*
X0443518Y0684688D01*
X0443270Y0684918D01*
X0443028Y0685154D01*
X0442792Y0685396D01*
X0442562Y0685644D01*
X0442338Y0685897D01*
X0442120Y0686156D01*
X0441909Y0686420D01*
X0441704Y0686689D01*
X0441506Y0686963D01*
X0441314Y0687242D01*
X0441130Y0687526D01*
X0440952Y0687814D01*
X0440782Y0688106D01*
X0440619Y0688402D01*
X0440463Y0688702D01*
X0440315Y0689006D01*
X0440174Y0689314D01*
X0440041Y0689625D01*
X0439915Y0689939D01*
X0439798Y0690256D01*
X0439688Y0690575D01*
X0439585Y0690898D01*
X0439491Y0691223D01*
X0439405Y0691550D01*
X0439327Y0691879D01*
X0439257Y0692210D01*
X0439195Y0692542D01*
X0439141Y0692876D01*
X0439096Y0693211D01*
X0439058Y0693547D01*
X0439029Y0693884D01*
X0439009Y0694222D01*
X0438996Y0694560D01*
X0438992Y0694898D01*
X0495095Y0689976D02*
X0495097Y0690169D01*
X0495104Y0690362D01*
X0495116Y0690555D01*
X0495133Y0690748D01*
X0495154Y0690940D01*
X0495180Y0691131D01*
X0495211Y0691322D01*
X0495246Y0691512D01*
X0495286Y0691701D01*
X0495331Y0691889D01*
X0495380Y0692076D01*
X0495434Y0692262D01*
X0495492Y0692446D01*
X0495555Y0692629D01*
X0495623Y0692810D01*
X0495694Y0692989D01*
X0495771Y0693167D01*
X0495851Y0693343D01*
X0495936Y0693516D01*
X0496025Y0693688D01*
X0496118Y0693857D01*
X0496215Y0694024D01*
X0496317Y0694189D01*
X0496422Y0694351D01*
X0496531Y0694510D01*
X0496645Y0694667D01*
X0496762Y0694820D01*
X0496882Y0694971D01*
X0497007Y0695119D01*
X0497135Y0695264D01*
X0497266Y0695405D01*
X0497401Y0695544D01*
X0497540Y0695679D01*
X0497681Y0695810D01*
X0497826Y0695938D01*
X0497974Y0696063D01*
X0498125Y0696183D01*
X0498278Y0696300D01*
X0498435Y0696414D01*
X0498594Y0696523D01*
X0498756Y0696628D01*
X0498921Y0696730D01*
X0499088Y0696827D01*
X0499257Y0696920D01*
X0499429Y0697009D01*
X0499602Y0697094D01*
X0499778Y0697174D01*
X0499956Y0697251D01*
X0500135Y0697322D01*
X0500316Y0697390D01*
X0500499Y0697453D01*
X0500683Y0697511D01*
X0500869Y0697565D01*
X0501056Y0697614D01*
X0501244Y0697659D01*
X0501433Y0697699D01*
X0501623Y0697734D01*
X0501814Y0697765D01*
X0502005Y0697791D01*
X0502197Y0697812D01*
X0502390Y0697829D01*
X0502583Y0697841D01*
X0502776Y0697848D01*
X0502969Y0697850D01*
X0503162Y0697848D01*
X0503355Y0697841D01*
X0503548Y0697829D01*
X0503741Y0697812D01*
X0503933Y0697791D01*
X0504124Y0697765D01*
X0504315Y0697734D01*
X0504505Y0697699D01*
X0504694Y0697659D01*
X0504882Y0697614D01*
X0505069Y0697565D01*
X0505255Y0697511D01*
X0505439Y0697453D01*
X0505622Y0697390D01*
X0505803Y0697322D01*
X0505982Y0697251D01*
X0506160Y0697174D01*
X0506336Y0697094D01*
X0506509Y0697009D01*
X0506681Y0696920D01*
X0506850Y0696827D01*
X0507017Y0696730D01*
X0507182Y0696628D01*
X0507344Y0696523D01*
X0507503Y0696414D01*
X0507660Y0696300D01*
X0507813Y0696183D01*
X0507964Y0696063D01*
X0508112Y0695938D01*
X0508257Y0695810D01*
X0508398Y0695679D01*
X0508537Y0695544D01*
X0508672Y0695405D01*
X0508803Y0695264D01*
X0508931Y0695119D01*
X0509056Y0694971D01*
X0509176Y0694820D01*
X0509293Y0694667D01*
X0509407Y0694510D01*
X0509516Y0694351D01*
X0509621Y0694189D01*
X0509723Y0694024D01*
X0509820Y0693857D01*
X0509913Y0693688D01*
X0510002Y0693516D01*
X0510087Y0693343D01*
X0510167Y0693167D01*
X0510244Y0692989D01*
X0510315Y0692810D01*
X0510383Y0692629D01*
X0510446Y0692446D01*
X0510504Y0692262D01*
X0510558Y0692076D01*
X0510607Y0691889D01*
X0510652Y0691701D01*
X0510692Y0691512D01*
X0510727Y0691322D01*
X0510758Y0691131D01*
X0510784Y0690940D01*
X0510805Y0690748D01*
X0510822Y0690555D01*
X0510834Y0690362D01*
X0510841Y0690169D01*
X0510843Y0689976D01*
X0510841Y0689783D01*
X0510834Y0689590D01*
X0510822Y0689397D01*
X0510805Y0689204D01*
X0510784Y0689012D01*
X0510758Y0688821D01*
X0510727Y0688630D01*
X0510692Y0688440D01*
X0510652Y0688251D01*
X0510607Y0688063D01*
X0510558Y0687876D01*
X0510504Y0687690D01*
X0510446Y0687506D01*
X0510383Y0687323D01*
X0510315Y0687142D01*
X0510244Y0686963D01*
X0510167Y0686785D01*
X0510087Y0686609D01*
X0510002Y0686436D01*
X0509913Y0686264D01*
X0509820Y0686095D01*
X0509723Y0685928D01*
X0509621Y0685763D01*
X0509516Y0685601D01*
X0509407Y0685442D01*
X0509293Y0685285D01*
X0509176Y0685132D01*
X0509056Y0684981D01*
X0508931Y0684833D01*
X0508803Y0684688D01*
X0508672Y0684547D01*
X0508537Y0684408D01*
X0508398Y0684273D01*
X0508257Y0684142D01*
X0508112Y0684014D01*
X0507964Y0683889D01*
X0507813Y0683769D01*
X0507660Y0683652D01*
X0507503Y0683538D01*
X0507344Y0683429D01*
X0507182Y0683324D01*
X0507017Y0683222D01*
X0506850Y0683125D01*
X0506681Y0683032D01*
X0506509Y0682943D01*
X0506336Y0682858D01*
X0506160Y0682778D01*
X0505982Y0682701D01*
X0505803Y0682630D01*
X0505622Y0682562D01*
X0505439Y0682499D01*
X0505255Y0682441D01*
X0505069Y0682387D01*
X0504882Y0682338D01*
X0504694Y0682293D01*
X0504505Y0682253D01*
X0504315Y0682218D01*
X0504124Y0682187D01*
X0503933Y0682161D01*
X0503741Y0682140D01*
X0503548Y0682123D01*
X0503355Y0682111D01*
X0503162Y0682104D01*
X0502969Y0682102D01*
X0502776Y0682104D01*
X0502583Y0682111D01*
X0502390Y0682123D01*
X0502197Y0682140D01*
X0502005Y0682161D01*
X0501814Y0682187D01*
X0501623Y0682218D01*
X0501433Y0682253D01*
X0501244Y0682293D01*
X0501056Y0682338D01*
X0500869Y0682387D01*
X0500683Y0682441D01*
X0500499Y0682499D01*
X0500316Y0682562D01*
X0500135Y0682630D01*
X0499956Y0682701D01*
X0499778Y0682778D01*
X0499602Y0682858D01*
X0499429Y0682943D01*
X0499257Y0683032D01*
X0499088Y0683125D01*
X0498921Y0683222D01*
X0498756Y0683324D01*
X0498594Y0683429D01*
X0498435Y0683538D01*
X0498278Y0683652D01*
X0498125Y0683769D01*
X0497974Y0683889D01*
X0497826Y0684014D01*
X0497681Y0684142D01*
X0497540Y0684273D01*
X0497401Y0684408D01*
X0497266Y0684547D01*
X0497135Y0684688D01*
X0497007Y0684833D01*
X0496882Y0684981D01*
X0496762Y0685132D01*
X0496645Y0685285D01*
X0496531Y0685442D01*
X0496422Y0685601D01*
X0496317Y0685763D01*
X0496215Y0685928D01*
X0496118Y0686095D01*
X0496025Y0686264D01*
X0495936Y0686436D01*
X0495851Y0686609D01*
X0495771Y0686785D01*
X0495694Y0686963D01*
X0495623Y0687142D01*
X0495555Y0687323D01*
X0495492Y0687506D01*
X0495434Y0687690D01*
X0495380Y0687876D01*
X0495331Y0688063D01*
X0495286Y0688251D01*
X0495246Y0688440D01*
X0495211Y0688630D01*
X0495180Y0688821D01*
X0495154Y0689012D01*
X0495133Y0689204D01*
X0495116Y0689397D01*
X0495104Y0689590D01*
X0495097Y0689783D01*
X0495095Y0689976D01*
X0542338Y0660449D02*
X0542341Y0660691D01*
X0542350Y0660932D01*
X0542365Y0661173D01*
X0542385Y0661414D01*
X0542412Y0661654D01*
X0542445Y0661893D01*
X0542483Y0662132D01*
X0542527Y0662369D01*
X0542577Y0662606D01*
X0542633Y0662841D01*
X0542695Y0663074D01*
X0542762Y0663306D01*
X0542835Y0663537D01*
X0542913Y0663765D01*
X0542998Y0663991D01*
X0543087Y0664216D01*
X0543182Y0664438D01*
X0543283Y0664657D01*
X0543389Y0664875D01*
X0543500Y0665089D01*
X0543617Y0665301D01*
X0543738Y0665509D01*
X0543865Y0665715D01*
X0543997Y0665917D01*
X0544134Y0666117D01*
X0544275Y0666312D01*
X0544421Y0666505D01*
X0544572Y0666693D01*
X0544728Y0666878D01*
X0544888Y0667059D01*
X0545052Y0667236D01*
X0545221Y0667409D01*
X0545394Y0667578D01*
X0545571Y0667742D01*
X0545752Y0667902D01*
X0545937Y0668058D01*
X0546125Y0668209D01*
X0546318Y0668355D01*
X0546513Y0668496D01*
X0546713Y0668633D01*
X0546915Y0668765D01*
X0547121Y0668892D01*
X0547329Y0669013D01*
X0547541Y0669130D01*
X0547755Y0669241D01*
X0547973Y0669347D01*
X0548192Y0669448D01*
X0548414Y0669543D01*
X0548639Y0669632D01*
X0548865Y0669717D01*
X0549093Y0669795D01*
X0549324Y0669868D01*
X0549556Y0669935D01*
X0549789Y0669997D01*
X0550024Y0670053D01*
X0550261Y0670103D01*
X0550498Y0670147D01*
X0550737Y0670185D01*
X0550976Y0670218D01*
X0551216Y0670245D01*
X0551457Y0670265D01*
X0551698Y0670280D01*
X0551939Y0670289D01*
X0552181Y0670292D01*
X0552423Y0670289D01*
X0552664Y0670280D01*
X0552905Y0670265D01*
X0553146Y0670245D01*
X0553386Y0670218D01*
X0553625Y0670185D01*
X0553864Y0670147D01*
X0554101Y0670103D01*
X0554338Y0670053D01*
X0554573Y0669997D01*
X0554806Y0669935D01*
X0555038Y0669868D01*
X0555269Y0669795D01*
X0555497Y0669717D01*
X0555723Y0669632D01*
X0555948Y0669543D01*
X0556170Y0669448D01*
X0556389Y0669347D01*
X0556607Y0669241D01*
X0556821Y0669130D01*
X0557033Y0669013D01*
X0557241Y0668892D01*
X0557447Y0668765D01*
X0557649Y0668633D01*
X0557849Y0668496D01*
X0558044Y0668355D01*
X0558237Y0668209D01*
X0558425Y0668058D01*
X0558610Y0667902D01*
X0558791Y0667742D01*
X0558968Y0667578D01*
X0559141Y0667409D01*
X0559310Y0667236D01*
X0559474Y0667059D01*
X0559634Y0666878D01*
X0559790Y0666693D01*
X0559941Y0666505D01*
X0560087Y0666312D01*
X0560228Y0666117D01*
X0560365Y0665917D01*
X0560497Y0665715D01*
X0560624Y0665509D01*
X0560745Y0665301D01*
X0560862Y0665089D01*
X0560973Y0664875D01*
X0561079Y0664657D01*
X0561180Y0664438D01*
X0561275Y0664216D01*
X0561364Y0663991D01*
X0561449Y0663765D01*
X0561527Y0663537D01*
X0561600Y0663306D01*
X0561667Y0663074D01*
X0561729Y0662841D01*
X0561785Y0662606D01*
X0561835Y0662369D01*
X0561879Y0662132D01*
X0561917Y0661893D01*
X0561950Y0661654D01*
X0561977Y0661414D01*
X0561997Y0661173D01*
X0562012Y0660932D01*
X0562021Y0660691D01*
X0562024Y0660449D01*
X0562021Y0660207D01*
X0562012Y0659966D01*
X0561997Y0659725D01*
X0561977Y0659484D01*
X0561950Y0659244D01*
X0561917Y0659005D01*
X0561879Y0658766D01*
X0561835Y0658529D01*
X0561785Y0658292D01*
X0561729Y0658057D01*
X0561667Y0657824D01*
X0561600Y0657592D01*
X0561527Y0657361D01*
X0561449Y0657133D01*
X0561364Y0656907D01*
X0561275Y0656682D01*
X0561180Y0656460D01*
X0561079Y0656241D01*
X0560973Y0656023D01*
X0560862Y0655809D01*
X0560745Y0655597D01*
X0560624Y0655389D01*
X0560497Y0655183D01*
X0560365Y0654981D01*
X0560228Y0654781D01*
X0560087Y0654586D01*
X0559941Y0654393D01*
X0559790Y0654205D01*
X0559634Y0654020D01*
X0559474Y0653839D01*
X0559310Y0653662D01*
X0559141Y0653489D01*
X0558968Y0653320D01*
X0558791Y0653156D01*
X0558610Y0652996D01*
X0558425Y0652840D01*
X0558237Y0652689D01*
X0558044Y0652543D01*
X0557849Y0652402D01*
X0557649Y0652265D01*
X0557447Y0652133D01*
X0557241Y0652006D01*
X0557033Y0651885D01*
X0556821Y0651768D01*
X0556607Y0651657D01*
X0556389Y0651551D01*
X0556170Y0651450D01*
X0555948Y0651355D01*
X0555723Y0651266D01*
X0555497Y0651181D01*
X0555269Y0651103D01*
X0555038Y0651030D01*
X0554806Y0650963D01*
X0554573Y0650901D01*
X0554338Y0650845D01*
X0554101Y0650795D01*
X0553864Y0650751D01*
X0553625Y0650713D01*
X0553386Y0650680D01*
X0553146Y0650653D01*
X0552905Y0650633D01*
X0552664Y0650618D01*
X0552423Y0650609D01*
X0552181Y0650606D01*
X0551939Y0650609D01*
X0551698Y0650618D01*
X0551457Y0650633D01*
X0551216Y0650653D01*
X0550976Y0650680D01*
X0550737Y0650713D01*
X0550498Y0650751D01*
X0550261Y0650795D01*
X0550024Y0650845D01*
X0549789Y0650901D01*
X0549556Y0650963D01*
X0549324Y0651030D01*
X0549093Y0651103D01*
X0548865Y0651181D01*
X0548639Y0651266D01*
X0548414Y0651355D01*
X0548192Y0651450D01*
X0547973Y0651551D01*
X0547755Y0651657D01*
X0547541Y0651768D01*
X0547329Y0651885D01*
X0547121Y0652006D01*
X0546915Y0652133D01*
X0546713Y0652265D01*
X0546513Y0652402D01*
X0546318Y0652543D01*
X0546125Y0652689D01*
X0545937Y0652840D01*
X0545752Y0652996D01*
X0545571Y0653156D01*
X0545394Y0653320D01*
X0545221Y0653489D01*
X0545052Y0653662D01*
X0544888Y0653839D01*
X0544728Y0654020D01*
X0544572Y0654205D01*
X0544421Y0654393D01*
X0544275Y0654586D01*
X0544134Y0654781D01*
X0543997Y0654981D01*
X0543865Y0655183D01*
X0543738Y0655389D01*
X0543617Y0655597D01*
X0543500Y0655809D01*
X0543389Y0656023D01*
X0543283Y0656241D01*
X0543182Y0656460D01*
X0543087Y0656682D01*
X0542998Y0656907D01*
X0542913Y0657133D01*
X0542835Y0657361D01*
X0542762Y0657592D01*
X0542695Y0657824D01*
X0542633Y0658057D01*
X0542577Y0658292D01*
X0542527Y0658529D01*
X0542483Y0658766D01*
X0542445Y0659005D01*
X0542412Y0659244D01*
X0542385Y0659484D01*
X0542365Y0659725D01*
X0542350Y0659966D01*
X0542341Y0660207D01*
X0542338Y0660449D01*
X0542338Y0471472D02*
X0542341Y0471714D01*
X0542350Y0471955D01*
X0542365Y0472196D01*
X0542385Y0472437D01*
X0542412Y0472677D01*
X0542445Y0472916D01*
X0542483Y0473155D01*
X0542527Y0473392D01*
X0542577Y0473629D01*
X0542633Y0473864D01*
X0542695Y0474097D01*
X0542762Y0474329D01*
X0542835Y0474560D01*
X0542913Y0474788D01*
X0542998Y0475014D01*
X0543087Y0475239D01*
X0543182Y0475461D01*
X0543283Y0475680D01*
X0543389Y0475898D01*
X0543500Y0476112D01*
X0543617Y0476324D01*
X0543738Y0476532D01*
X0543865Y0476738D01*
X0543997Y0476940D01*
X0544134Y0477140D01*
X0544275Y0477335D01*
X0544421Y0477528D01*
X0544572Y0477716D01*
X0544728Y0477901D01*
X0544888Y0478082D01*
X0545052Y0478259D01*
X0545221Y0478432D01*
X0545394Y0478601D01*
X0545571Y0478765D01*
X0545752Y0478925D01*
X0545937Y0479081D01*
X0546125Y0479232D01*
X0546318Y0479378D01*
X0546513Y0479519D01*
X0546713Y0479656D01*
X0546915Y0479788D01*
X0547121Y0479915D01*
X0547329Y0480036D01*
X0547541Y0480153D01*
X0547755Y0480264D01*
X0547973Y0480370D01*
X0548192Y0480471D01*
X0548414Y0480566D01*
X0548639Y0480655D01*
X0548865Y0480740D01*
X0549093Y0480818D01*
X0549324Y0480891D01*
X0549556Y0480958D01*
X0549789Y0481020D01*
X0550024Y0481076D01*
X0550261Y0481126D01*
X0550498Y0481170D01*
X0550737Y0481208D01*
X0550976Y0481241D01*
X0551216Y0481268D01*
X0551457Y0481288D01*
X0551698Y0481303D01*
X0551939Y0481312D01*
X0552181Y0481315D01*
X0552423Y0481312D01*
X0552664Y0481303D01*
X0552905Y0481288D01*
X0553146Y0481268D01*
X0553386Y0481241D01*
X0553625Y0481208D01*
X0553864Y0481170D01*
X0554101Y0481126D01*
X0554338Y0481076D01*
X0554573Y0481020D01*
X0554806Y0480958D01*
X0555038Y0480891D01*
X0555269Y0480818D01*
X0555497Y0480740D01*
X0555723Y0480655D01*
X0555948Y0480566D01*
X0556170Y0480471D01*
X0556389Y0480370D01*
X0556607Y0480264D01*
X0556821Y0480153D01*
X0557033Y0480036D01*
X0557241Y0479915D01*
X0557447Y0479788D01*
X0557649Y0479656D01*
X0557849Y0479519D01*
X0558044Y0479378D01*
X0558237Y0479232D01*
X0558425Y0479081D01*
X0558610Y0478925D01*
X0558791Y0478765D01*
X0558968Y0478601D01*
X0559141Y0478432D01*
X0559310Y0478259D01*
X0559474Y0478082D01*
X0559634Y0477901D01*
X0559790Y0477716D01*
X0559941Y0477528D01*
X0560087Y0477335D01*
X0560228Y0477140D01*
X0560365Y0476940D01*
X0560497Y0476738D01*
X0560624Y0476532D01*
X0560745Y0476324D01*
X0560862Y0476112D01*
X0560973Y0475898D01*
X0561079Y0475680D01*
X0561180Y0475461D01*
X0561275Y0475239D01*
X0561364Y0475014D01*
X0561449Y0474788D01*
X0561527Y0474560D01*
X0561600Y0474329D01*
X0561667Y0474097D01*
X0561729Y0473864D01*
X0561785Y0473629D01*
X0561835Y0473392D01*
X0561879Y0473155D01*
X0561917Y0472916D01*
X0561950Y0472677D01*
X0561977Y0472437D01*
X0561997Y0472196D01*
X0562012Y0471955D01*
X0562021Y0471714D01*
X0562024Y0471472D01*
X0562021Y0471230D01*
X0562012Y0470989D01*
X0561997Y0470748D01*
X0561977Y0470507D01*
X0561950Y0470267D01*
X0561917Y0470028D01*
X0561879Y0469789D01*
X0561835Y0469552D01*
X0561785Y0469315D01*
X0561729Y0469080D01*
X0561667Y0468847D01*
X0561600Y0468615D01*
X0561527Y0468384D01*
X0561449Y0468156D01*
X0561364Y0467930D01*
X0561275Y0467705D01*
X0561180Y0467483D01*
X0561079Y0467264D01*
X0560973Y0467046D01*
X0560862Y0466832D01*
X0560745Y0466620D01*
X0560624Y0466412D01*
X0560497Y0466206D01*
X0560365Y0466004D01*
X0560228Y0465804D01*
X0560087Y0465609D01*
X0559941Y0465416D01*
X0559790Y0465228D01*
X0559634Y0465043D01*
X0559474Y0464862D01*
X0559310Y0464685D01*
X0559141Y0464512D01*
X0558968Y0464343D01*
X0558791Y0464179D01*
X0558610Y0464019D01*
X0558425Y0463863D01*
X0558237Y0463712D01*
X0558044Y0463566D01*
X0557849Y0463425D01*
X0557649Y0463288D01*
X0557447Y0463156D01*
X0557241Y0463029D01*
X0557033Y0462908D01*
X0556821Y0462791D01*
X0556607Y0462680D01*
X0556389Y0462574D01*
X0556170Y0462473D01*
X0555948Y0462378D01*
X0555723Y0462289D01*
X0555497Y0462204D01*
X0555269Y0462126D01*
X0555038Y0462053D01*
X0554806Y0461986D01*
X0554573Y0461924D01*
X0554338Y0461868D01*
X0554101Y0461818D01*
X0553864Y0461774D01*
X0553625Y0461736D01*
X0553386Y0461703D01*
X0553146Y0461676D01*
X0552905Y0461656D01*
X0552664Y0461641D01*
X0552423Y0461632D01*
X0552181Y0461629D01*
X0551939Y0461632D01*
X0551698Y0461641D01*
X0551457Y0461656D01*
X0551216Y0461676D01*
X0550976Y0461703D01*
X0550737Y0461736D01*
X0550498Y0461774D01*
X0550261Y0461818D01*
X0550024Y0461868D01*
X0549789Y0461924D01*
X0549556Y0461986D01*
X0549324Y0462053D01*
X0549093Y0462126D01*
X0548865Y0462204D01*
X0548639Y0462289D01*
X0548414Y0462378D01*
X0548192Y0462473D01*
X0547973Y0462574D01*
X0547755Y0462680D01*
X0547541Y0462791D01*
X0547329Y0462908D01*
X0547121Y0463029D01*
X0546915Y0463156D01*
X0546713Y0463288D01*
X0546513Y0463425D01*
X0546318Y0463566D01*
X0546125Y0463712D01*
X0545937Y0463863D01*
X0545752Y0464019D01*
X0545571Y0464179D01*
X0545394Y0464343D01*
X0545221Y0464512D01*
X0545052Y0464685D01*
X0544888Y0464862D01*
X0544728Y0465043D01*
X0544572Y0465228D01*
X0544421Y0465416D01*
X0544275Y0465609D01*
X0544134Y0465804D01*
X0543997Y0466004D01*
X0543865Y0466206D01*
X0543738Y0466412D01*
X0543617Y0466620D01*
X0543500Y0466832D01*
X0543389Y0467046D01*
X0543283Y0467264D01*
X0543182Y0467483D01*
X0543087Y0467705D01*
X0542998Y0467930D01*
X0542913Y0468156D01*
X0542835Y0468384D01*
X0542762Y0468615D01*
X0542695Y0468847D01*
X0542633Y0469080D01*
X0542577Y0469315D01*
X0542527Y0469552D01*
X0542483Y0469789D01*
X0542445Y0470028D01*
X0542412Y0470267D01*
X0542385Y0470507D01*
X0542365Y0470748D01*
X0542350Y0470989D01*
X0542341Y0471230D01*
X0542338Y0471472D01*
X0542338Y0395685D02*
X0542341Y0395927D01*
X0542350Y0396168D01*
X0542365Y0396409D01*
X0542385Y0396650D01*
X0542412Y0396890D01*
X0542445Y0397129D01*
X0542483Y0397368D01*
X0542527Y0397605D01*
X0542577Y0397842D01*
X0542633Y0398077D01*
X0542695Y0398310D01*
X0542762Y0398542D01*
X0542835Y0398773D01*
X0542913Y0399001D01*
X0542998Y0399227D01*
X0543087Y0399452D01*
X0543182Y0399674D01*
X0543283Y0399893D01*
X0543389Y0400111D01*
X0543500Y0400325D01*
X0543617Y0400537D01*
X0543738Y0400745D01*
X0543865Y0400951D01*
X0543997Y0401153D01*
X0544134Y0401353D01*
X0544275Y0401548D01*
X0544421Y0401741D01*
X0544572Y0401929D01*
X0544728Y0402114D01*
X0544888Y0402295D01*
X0545052Y0402472D01*
X0545221Y0402645D01*
X0545394Y0402814D01*
X0545571Y0402978D01*
X0545752Y0403138D01*
X0545937Y0403294D01*
X0546125Y0403445D01*
X0546318Y0403591D01*
X0546513Y0403732D01*
X0546713Y0403869D01*
X0546915Y0404001D01*
X0547121Y0404128D01*
X0547329Y0404249D01*
X0547541Y0404366D01*
X0547755Y0404477D01*
X0547973Y0404583D01*
X0548192Y0404684D01*
X0548414Y0404779D01*
X0548639Y0404868D01*
X0548865Y0404953D01*
X0549093Y0405031D01*
X0549324Y0405104D01*
X0549556Y0405171D01*
X0549789Y0405233D01*
X0550024Y0405289D01*
X0550261Y0405339D01*
X0550498Y0405383D01*
X0550737Y0405421D01*
X0550976Y0405454D01*
X0551216Y0405481D01*
X0551457Y0405501D01*
X0551698Y0405516D01*
X0551939Y0405525D01*
X0552181Y0405528D01*
X0552423Y0405525D01*
X0552664Y0405516D01*
X0552905Y0405501D01*
X0553146Y0405481D01*
X0553386Y0405454D01*
X0553625Y0405421D01*
X0553864Y0405383D01*
X0554101Y0405339D01*
X0554338Y0405289D01*
X0554573Y0405233D01*
X0554806Y0405171D01*
X0555038Y0405104D01*
X0555269Y0405031D01*
X0555497Y0404953D01*
X0555723Y0404868D01*
X0555948Y0404779D01*
X0556170Y0404684D01*
X0556389Y0404583D01*
X0556607Y0404477D01*
X0556821Y0404366D01*
X0557033Y0404249D01*
X0557241Y0404128D01*
X0557447Y0404001D01*
X0557649Y0403869D01*
X0557849Y0403732D01*
X0558044Y0403591D01*
X0558237Y0403445D01*
X0558425Y0403294D01*
X0558610Y0403138D01*
X0558791Y0402978D01*
X0558968Y0402814D01*
X0559141Y0402645D01*
X0559310Y0402472D01*
X0559474Y0402295D01*
X0559634Y0402114D01*
X0559790Y0401929D01*
X0559941Y0401741D01*
X0560087Y0401548D01*
X0560228Y0401353D01*
X0560365Y0401153D01*
X0560497Y0400951D01*
X0560624Y0400745D01*
X0560745Y0400537D01*
X0560862Y0400325D01*
X0560973Y0400111D01*
X0561079Y0399893D01*
X0561180Y0399674D01*
X0561275Y0399452D01*
X0561364Y0399227D01*
X0561449Y0399001D01*
X0561527Y0398773D01*
X0561600Y0398542D01*
X0561667Y0398310D01*
X0561729Y0398077D01*
X0561785Y0397842D01*
X0561835Y0397605D01*
X0561879Y0397368D01*
X0561917Y0397129D01*
X0561950Y0396890D01*
X0561977Y0396650D01*
X0561997Y0396409D01*
X0562012Y0396168D01*
X0562021Y0395927D01*
X0562024Y0395685D01*
X0562021Y0395443D01*
X0562012Y0395202D01*
X0561997Y0394961D01*
X0561977Y0394720D01*
X0561950Y0394480D01*
X0561917Y0394241D01*
X0561879Y0394002D01*
X0561835Y0393765D01*
X0561785Y0393528D01*
X0561729Y0393293D01*
X0561667Y0393060D01*
X0561600Y0392828D01*
X0561527Y0392597D01*
X0561449Y0392369D01*
X0561364Y0392143D01*
X0561275Y0391918D01*
X0561180Y0391696D01*
X0561079Y0391477D01*
X0560973Y0391259D01*
X0560862Y0391045D01*
X0560745Y0390833D01*
X0560624Y0390625D01*
X0560497Y0390419D01*
X0560365Y0390217D01*
X0560228Y0390017D01*
X0560087Y0389822D01*
X0559941Y0389629D01*
X0559790Y0389441D01*
X0559634Y0389256D01*
X0559474Y0389075D01*
X0559310Y0388898D01*
X0559141Y0388725D01*
X0558968Y0388556D01*
X0558791Y0388392D01*
X0558610Y0388232D01*
X0558425Y0388076D01*
X0558237Y0387925D01*
X0558044Y0387779D01*
X0557849Y0387638D01*
X0557649Y0387501D01*
X0557447Y0387369D01*
X0557241Y0387242D01*
X0557033Y0387121D01*
X0556821Y0387004D01*
X0556607Y0386893D01*
X0556389Y0386787D01*
X0556170Y0386686D01*
X0555948Y0386591D01*
X0555723Y0386502D01*
X0555497Y0386417D01*
X0555269Y0386339D01*
X0555038Y0386266D01*
X0554806Y0386199D01*
X0554573Y0386137D01*
X0554338Y0386081D01*
X0554101Y0386031D01*
X0553864Y0385987D01*
X0553625Y0385949D01*
X0553386Y0385916D01*
X0553146Y0385889D01*
X0552905Y0385869D01*
X0552664Y0385854D01*
X0552423Y0385845D01*
X0552181Y0385842D01*
X0551939Y0385845D01*
X0551698Y0385854D01*
X0551457Y0385869D01*
X0551216Y0385889D01*
X0550976Y0385916D01*
X0550737Y0385949D01*
X0550498Y0385987D01*
X0550261Y0386031D01*
X0550024Y0386081D01*
X0549789Y0386137D01*
X0549556Y0386199D01*
X0549324Y0386266D01*
X0549093Y0386339D01*
X0548865Y0386417D01*
X0548639Y0386502D01*
X0548414Y0386591D01*
X0548192Y0386686D01*
X0547973Y0386787D01*
X0547755Y0386893D01*
X0547541Y0387004D01*
X0547329Y0387121D01*
X0547121Y0387242D01*
X0546915Y0387369D01*
X0546713Y0387501D01*
X0546513Y0387638D01*
X0546318Y0387779D01*
X0546125Y0387925D01*
X0545937Y0388076D01*
X0545752Y0388232D01*
X0545571Y0388392D01*
X0545394Y0388556D01*
X0545221Y0388725D01*
X0545052Y0388898D01*
X0544888Y0389075D01*
X0544728Y0389256D01*
X0544572Y0389441D01*
X0544421Y0389629D01*
X0544275Y0389822D01*
X0544134Y0390017D01*
X0543997Y0390217D01*
X0543865Y0390419D01*
X0543738Y0390625D01*
X0543617Y0390833D01*
X0543500Y0391045D01*
X0543389Y0391259D01*
X0543283Y0391477D01*
X0543182Y0391696D01*
X0543087Y0391918D01*
X0542998Y0392143D01*
X0542913Y0392369D01*
X0542835Y0392597D01*
X0542762Y0392828D01*
X0542695Y0393060D01*
X0542633Y0393293D01*
X0542577Y0393528D01*
X0542527Y0393765D01*
X0542483Y0394002D01*
X0542445Y0394241D01*
X0542412Y0394480D01*
X0542385Y0394720D01*
X0542365Y0394961D01*
X0542350Y0395202D01*
X0542341Y0395443D01*
X0542338Y0395685D01*
X0464582Y0448835D02*
X0464586Y0449173D01*
X0464599Y0449511D01*
X0464619Y0449849D01*
X0464648Y0450186D01*
X0464686Y0450522D01*
X0464731Y0450857D01*
X0464785Y0451191D01*
X0464847Y0451523D01*
X0464917Y0451854D01*
X0464995Y0452183D01*
X0465081Y0452510D01*
X0465175Y0452835D01*
X0465278Y0453158D01*
X0465388Y0453477D01*
X0465505Y0453794D01*
X0465631Y0454108D01*
X0465764Y0454419D01*
X0465905Y0454727D01*
X0466053Y0455031D01*
X0466209Y0455331D01*
X0466372Y0455627D01*
X0466542Y0455919D01*
X0466720Y0456207D01*
X0466904Y0456491D01*
X0467096Y0456770D01*
X0467294Y0457044D01*
X0467499Y0457313D01*
X0467710Y0457577D01*
X0467928Y0457836D01*
X0468152Y0458089D01*
X0468382Y0458337D01*
X0468618Y0458579D01*
X0468860Y0458815D01*
X0469108Y0459045D01*
X0469361Y0459269D01*
X0469620Y0459487D01*
X0469884Y0459698D01*
X0470153Y0459903D01*
X0470427Y0460101D01*
X0470706Y0460293D01*
X0470990Y0460477D01*
X0471278Y0460655D01*
X0471570Y0460825D01*
X0471866Y0460988D01*
X0472166Y0461144D01*
X0472470Y0461292D01*
X0472778Y0461433D01*
X0473089Y0461566D01*
X0473403Y0461692D01*
X0473720Y0461809D01*
X0474039Y0461919D01*
X0474362Y0462022D01*
X0474687Y0462116D01*
X0475014Y0462202D01*
X0475343Y0462280D01*
X0475674Y0462350D01*
X0476006Y0462412D01*
X0476340Y0462466D01*
X0476675Y0462511D01*
X0477011Y0462549D01*
X0477348Y0462578D01*
X0477686Y0462598D01*
X0478024Y0462611D01*
X0478362Y0462615D01*
X0478700Y0462611D01*
X0479038Y0462598D01*
X0479376Y0462578D01*
X0479713Y0462549D01*
X0480049Y0462511D01*
X0480384Y0462466D01*
X0480718Y0462412D01*
X0481050Y0462350D01*
X0481381Y0462280D01*
X0481710Y0462202D01*
X0482037Y0462116D01*
X0482362Y0462022D01*
X0482685Y0461919D01*
X0483004Y0461809D01*
X0483321Y0461692D01*
X0483635Y0461566D01*
X0483946Y0461433D01*
X0484254Y0461292D01*
X0484558Y0461144D01*
X0484858Y0460988D01*
X0485154Y0460825D01*
X0485446Y0460655D01*
X0485734Y0460477D01*
X0486018Y0460293D01*
X0486297Y0460101D01*
X0486571Y0459903D01*
X0486840Y0459698D01*
X0487104Y0459487D01*
X0487363Y0459269D01*
X0487616Y0459045D01*
X0487864Y0458815D01*
X0488106Y0458579D01*
X0488342Y0458337D01*
X0488572Y0458089D01*
X0488796Y0457836D01*
X0489014Y0457577D01*
X0489225Y0457313D01*
X0489430Y0457044D01*
X0489628Y0456770D01*
X0489820Y0456491D01*
X0490004Y0456207D01*
X0490182Y0455919D01*
X0490352Y0455627D01*
X0490515Y0455331D01*
X0490671Y0455031D01*
X0490819Y0454727D01*
X0490960Y0454419D01*
X0491093Y0454108D01*
X0491219Y0453794D01*
X0491336Y0453477D01*
X0491446Y0453158D01*
X0491549Y0452835D01*
X0491643Y0452510D01*
X0491729Y0452183D01*
X0491807Y0451854D01*
X0491877Y0451523D01*
X0491939Y0451191D01*
X0491993Y0450857D01*
X0492038Y0450522D01*
X0492076Y0450186D01*
X0492105Y0449849D01*
X0492125Y0449511D01*
X0492138Y0449173D01*
X0492142Y0448835D01*
X0492138Y0448497D01*
X0492125Y0448159D01*
X0492105Y0447821D01*
X0492076Y0447484D01*
X0492038Y0447148D01*
X0491993Y0446813D01*
X0491939Y0446479D01*
X0491877Y0446147D01*
X0491807Y0445816D01*
X0491729Y0445487D01*
X0491643Y0445160D01*
X0491549Y0444835D01*
X0491446Y0444512D01*
X0491336Y0444193D01*
X0491219Y0443876D01*
X0491093Y0443562D01*
X0490960Y0443251D01*
X0490819Y0442943D01*
X0490671Y0442639D01*
X0490515Y0442339D01*
X0490352Y0442043D01*
X0490182Y0441751D01*
X0490004Y0441463D01*
X0489820Y0441179D01*
X0489628Y0440900D01*
X0489430Y0440626D01*
X0489225Y0440357D01*
X0489014Y0440093D01*
X0488796Y0439834D01*
X0488572Y0439581D01*
X0488342Y0439333D01*
X0488106Y0439091D01*
X0487864Y0438855D01*
X0487616Y0438625D01*
X0487363Y0438401D01*
X0487104Y0438183D01*
X0486840Y0437972D01*
X0486571Y0437767D01*
X0486297Y0437569D01*
X0486018Y0437377D01*
X0485734Y0437193D01*
X0485446Y0437015D01*
X0485154Y0436845D01*
X0484858Y0436682D01*
X0484558Y0436526D01*
X0484254Y0436378D01*
X0483946Y0436237D01*
X0483635Y0436104D01*
X0483321Y0435978D01*
X0483004Y0435861D01*
X0482685Y0435751D01*
X0482362Y0435648D01*
X0482037Y0435554D01*
X0481710Y0435468D01*
X0481381Y0435390D01*
X0481050Y0435320D01*
X0480718Y0435258D01*
X0480384Y0435204D01*
X0480049Y0435159D01*
X0479713Y0435121D01*
X0479376Y0435092D01*
X0479038Y0435072D01*
X0478700Y0435059D01*
X0478362Y0435055D01*
X0478024Y0435059D01*
X0477686Y0435072D01*
X0477348Y0435092D01*
X0477011Y0435121D01*
X0476675Y0435159D01*
X0476340Y0435204D01*
X0476006Y0435258D01*
X0475674Y0435320D01*
X0475343Y0435390D01*
X0475014Y0435468D01*
X0474687Y0435554D01*
X0474362Y0435648D01*
X0474039Y0435751D01*
X0473720Y0435861D01*
X0473403Y0435978D01*
X0473089Y0436104D01*
X0472778Y0436237D01*
X0472470Y0436378D01*
X0472166Y0436526D01*
X0471866Y0436682D01*
X0471570Y0436845D01*
X0471278Y0437015D01*
X0470990Y0437193D01*
X0470706Y0437377D01*
X0470427Y0437569D01*
X0470153Y0437767D01*
X0469884Y0437972D01*
X0469620Y0438183D01*
X0469361Y0438401D01*
X0469108Y0438625D01*
X0468860Y0438855D01*
X0468618Y0439091D01*
X0468382Y0439333D01*
X0468152Y0439581D01*
X0467928Y0439834D01*
X0467710Y0440093D01*
X0467499Y0440357D01*
X0467294Y0440626D01*
X0467096Y0440900D01*
X0466904Y0441179D01*
X0466720Y0441463D01*
X0466542Y0441751D01*
X0466372Y0442043D01*
X0466209Y0442339D01*
X0466053Y0442639D01*
X0465905Y0442943D01*
X0465764Y0443251D01*
X0465631Y0443562D01*
X0465505Y0443876D01*
X0465388Y0444193D01*
X0465278Y0444512D01*
X0465175Y0444835D01*
X0465081Y0445160D01*
X0464995Y0445487D01*
X0464917Y0445816D01*
X0464847Y0446147D01*
X0464785Y0446479D01*
X0464731Y0446813D01*
X0464686Y0447148D01*
X0464648Y0447484D01*
X0464619Y0447821D01*
X0464599Y0448159D01*
X0464586Y0448497D01*
X0464582Y0448835D01*
X0529543Y0107299D02*
X0529545Y0107492D01*
X0529552Y0107685D01*
X0529564Y0107878D01*
X0529581Y0108071D01*
X0529602Y0108263D01*
X0529628Y0108454D01*
X0529659Y0108645D01*
X0529694Y0108835D01*
X0529734Y0109024D01*
X0529779Y0109212D01*
X0529828Y0109399D01*
X0529882Y0109585D01*
X0529940Y0109769D01*
X0530003Y0109952D01*
X0530071Y0110133D01*
X0530142Y0110312D01*
X0530219Y0110490D01*
X0530299Y0110666D01*
X0530384Y0110839D01*
X0530473Y0111011D01*
X0530566Y0111180D01*
X0530663Y0111347D01*
X0530765Y0111512D01*
X0530870Y0111674D01*
X0530979Y0111833D01*
X0531093Y0111990D01*
X0531210Y0112143D01*
X0531330Y0112294D01*
X0531455Y0112442D01*
X0531583Y0112587D01*
X0531714Y0112728D01*
X0531849Y0112867D01*
X0531988Y0113002D01*
X0532129Y0113133D01*
X0532274Y0113261D01*
X0532422Y0113386D01*
X0532573Y0113506D01*
X0532726Y0113623D01*
X0532883Y0113737D01*
X0533042Y0113846D01*
X0533204Y0113951D01*
X0533369Y0114053D01*
X0533536Y0114150D01*
X0533705Y0114243D01*
X0533877Y0114332D01*
X0534050Y0114417D01*
X0534226Y0114497D01*
X0534404Y0114574D01*
X0534583Y0114645D01*
X0534764Y0114713D01*
X0534947Y0114776D01*
X0535131Y0114834D01*
X0535317Y0114888D01*
X0535504Y0114937D01*
X0535692Y0114982D01*
X0535881Y0115022D01*
X0536071Y0115057D01*
X0536262Y0115088D01*
X0536453Y0115114D01*
X0536645Y0115135D01*
X0536838Y0115152D01*
X0537031Y0115164D01*
X0537224Y0115171D01*
X0537417Y0115173D01*
X0537610Y0115171D01*
X0537803Y0115164D01*
X0537996Y0115152D01*
X0538189Y0115135D01*
X0538381Y0115114D01*
X0538572Y0115088D01*
X0538763Y0115057D01*
X0538953Y0115022D01*
X0539142Y0114982D01*
X0539330Y0114937D01*
X0539517Y0114888D01*
X0539703Y0114834D01*
X0539887Y0114776D01*
X0540070Y0114713D01*
X0540251Y0114645D01*
X0540430Y0114574D01*
X0540608Y0114497D01*
X0540784Y0114417D01*
X0540957Y0114332D01*
X0541129Y0114243D01*
X0541298Y0114150D01*
X0541465Y0114053D01*
X0541630Y0113951D01*
X0541792Y0113846D01*
X0541951Y0113737D01*
X0542108Y0113623D01*
X0542261Y0113506D01*
X0542412Y0113386D01*
X0542560Y0113261D01*
X0542705Y0113133D01*
X0542846Y0113002D01*
X0542985Y0112867D01*
X0543120Y0112728D01*
X0543251Y0112587D01*
X0543379Y0112442D01*
X0543504Y0112294D01*
X0543624Y0112143D01*
X0543741Y0111990D01*
X0543855Y0111833D01*
X0543964Y0111674D01*
X0544069Y0111512D01*
X0544171Y0111347D01*
X0544268Y0111180D01*
X0544361Y0111011D01*
X0544450Y0110839D01*
X0544535Y0110666D01*
X0544615Y0110490D01*
X0544692Y0110312D01*
X0544763Y0110133D01*
X0544831Y0109952D01*
X0544894Y0109769D01*
X0544952Y0109585D01*
X0545006Y0109399D01*
X0545055Y0109212D01*
X0545100Y0109024D01*
X0545140Y0108835D01*
X0545175Y0108645D01*
X0545206Y0108454D01*
X0545232Y0108263D01*
X0545253Y0108071D01*
X0545270Y0107878D01*
X0545282Y0107685D01*
X0545289Y0107492D01*
X0545291Y0107299D01*
X0545289Y0107106D01*
X0545282Y0106913D01*
X0545270Y0106720D01*
X0545253Y0106527D01*
X0545232Y0106335D01*
X0545206Y0106144D01*
X0545175Y0105953D01*
X0545140Y0105763D01*
X0545100Y0105574D01*
X0545055Y0105386D01*
X0545006Y0105199D01*
X0544952Y0105013D01*
X0544894Y0104829D01*
X0544831Y0104646D01*
X0544763Y0104465D01*
X0544692Y0104286D01*
X0544615Y0104108D01*
X0544535Y0103932D01*
X0544450Y0103759D01*
X0544361Y0103587D01*
X0544268Y0103418D01*
X0544171Y0103251D01*
X0544069Y0103086D01*
X0543964Y0102924D01*
X0543855Y0102765D01*
X0543741Y0102608D01*
X0543624Y0102455D01*
X0543504Y0102304D01*
X0543379Y0102156D01*
X0543251Y0102011D01*
X0543120Y0101870D01*
X0542985Y0101731D01*
X0542846Y0101596D01*
X0542705Y0101465D01*
X0542560Y0101337D01*
X0542412Y0101212D01*
X0542261Y0101092D01*
X0542108Y0100975D01*
X0541951Y0100861D01*
X0541792Y0100752D01*
X0541630Y0100647D01*
X0541465Y0100545D01*
X0541298Y0100448D01*
X0541129Y0100355D01*
X0540957Y0100266D01*
X0540784Y0100181D01*
X0540608Y0100101D01*
X0540430Y0100024D01*
X0540251Y0099953D01*
X0540070Y0099885D01*
X0539887Y0099822D01*
X0539703Y0099764D01*
X0539517Y0099710D01*
X0539330Y0099661D01*
X0539142Y0099616D01*
X0538953Y0099576D01*
X0538763Y0099541D01*
X0538572Y0099510D01*
X0538381Y0099484D01*
X0538189Y0099463D01*
X0537996Y0099446D01*
X0537803Y0099434D01*
X0537610Y0099427D01*
X0537417Y0099425D01*
X0537224Y0099427D01*
X0537031Y0099434D01*
X0536838Y0099446D01*
X0536645Y0099463D01*
X0536453Y0099484D01*
X0536262Y0099510D01*
X0536071Y0099541D01*
X0535881Y0099576D01*
X0535692Y0099616D01*
X0535504Y0099661D01*
X0535317Y0099710D01*
X0535131Y0099764D01*
X0534947Y0099822D01*
X0534764Y0099885D01*
X0534583Y0099953D01*
X0534404Y0100024D01*
X0534226Y0100101D01*
X0534050Y0100181D01*
X0533877Y0100266D01*
X0533705Y0100355D01*
X0533536Y0100448D01*
X0533369Y0100545D01*
X0533204Y0100647D01*
X0533042Y0100752D01*
X0532883Y0100861D01*
X0532726Y0100975D01*
X0532573Y0101092D01*
X0532422Y0101212D01*
X0532274Y0101337D01*
X0532129Y0101465D01*
X0531988Y0101596D01*
X0531849Y0101731D01*
X0531714Y0101870D01*
X0531583Y0102011D01*
X0531455Y0102156D01*
X0531330Y0102304D01*
X0531210Y0102455D01*
X0531093Y0102608D01*
X0530979Y0102765D01*
X0530870Y0102924D01*
X0530765Y0103086D01*
X0530663Y0103251D01*
X0530566Y0103418D01*
X0530473Y0103587D01*
X0530384Y0103759D01*
X0530299Y0103932D01*
X0530219Y0104108D01*
X0530142Y0104286D01*
X0530071Y0104465D01*
X0530003Y0104646D01*
X0529940Y0104829D01*
X0529882Y0105013D01*
X0529828Y0105199D01*
X0529779Y0105386D01*
X0529734Y0105574D01*
X0529694Y0105763D01*
X0529659Y0105953D01*
X0529628Y0106144D01*
X0529602Y0106335D01*
X0529581Y0106527D01*
X0529564Y0106720D01*
X0529552Y0106913D01*
X0529545Y0107106D01*
X0529543Y0107299D01*
X0542338Y0057102D02*
X0542341Y0057344D01*
X0542350Y0057585D01*
X0542365Y0057826D01*
X0542385Y0058067D01*
X0542412Y0058307D01*
X0542445Y0058546D01*
X0542483Y0058785D01*
X0542527Y0059022D01*
X0542577Y0059259D01*
X0542633Y0059494D01*
X0542695Y0059727D01*
X0542762Y0059959D01*
X0542835Y0060190D01*
X0542913Y0060418D01*
X0542998Y0060644D01*
X0543087Y0060869D01*
X0543182Y0061091D01*
X0543283Y0061310D01*
X0543389Y0061528D01*
X0543500Y0061742D01*
X0543617Y0061954D01*
X0543738Y0062162D01*
X0543865Y0062368D01*
X0543997Y0062570D01*
X0544134Y0062770D01*
X0544275Y0062965D01*
X0544421Y0063158D01*
X0544572Y0063346D01*
X0544728Y0063531D01*
X0544888Y0063712D01*
X0545052Y0063889D01*
X0545221Y0064062D01*
X0545394Y0064231D01*
X0545571Y0064395D01*
X0545752Y0064555D01*
X0545937Y0064711D01*
X0546125Y0064862D01*
X0546318Y0065008D01*
X0546513Y0065149D01*
X0546713Y0065286D01*
X0546915Y0065418D01*
X0547121Y0065545D01*
X0547329Y0065666D01*
X0547541Y0065783D01*
X0547755Y0065894D01*
X0547973Y0066000D01*
X0548192Y0066101D01*
X0548414Y0066196D01*
X0548639Y0066285D01*
X0548865Y0066370D01*
X0549093Y0066448D01*
X0549324Y0066521D01*
X0549556Y0066588D01*
X0549789Y0066650D01*
X0550024Y0066706D01*
X0550261Y0066756D01*
X0550498Y0066800D01*
X0550737Y0066838D01*
X0550976Y0066871D01*
X0551216Y0066898D01*
X0551457Y0066918D01*
X0551698Y0066933D01*
X0551939Y0066942D01*
X0552181Y0066945D01*
X0552423Y0066942D01*
X0552664Y0066933D01*
X0552905Y0066918D01*
X0553146Y0066898D01*
X0553386Y0066871D01*
X0553625Y0066838D01*
X0553864Y0066800D01*
X0554101Y0066756D01*
X0554338Y0066706D01*
X0554573Y0066650D01*
X0554806Y0066588D01*
X0555038Y0066521D01*
X0555269Y0066448D01*
X0555497Y0066370D01*
X0555723Y0066285D01*
X0555948Y0066196D01*
X0556170Y0066101D01*
X0556389Y0066000D01*
X0556607Y0065894D01*
X0556821Y0065783D01*
X0557033Y0065666D01*
X0557241Y0065545D01*
X0557447Y0065418D01*
X0557649Y0065286D01*
X0557849Y0065149D01*
X0558044Y0065008D01*
X0558237Y0064862D01*
X0558425Y0064711D01*
X0558610Y0064555D01*
X0558791Y0064395D01*
X0558968Y0064231D01*
X0559141Y0064062D01*
X0559310Y0063889D01*
X0559474Y0063712D01*
X0559634Y0063531D01*
X0559790Y0063346D01*
X0559941Y0063158D01*
X0560087Y0062965D01*
X0560228Y0062770D01*
X0560365Y0062570D01*
X0560497Y0062368D01*
X0560624Y0062162D01*
X0560745Y0061954D01*
X0560862Y0061742D01*
X0560973Y0061528D01*
X0561079Y0061310D01*
X0561180Y0061091D01*
X0561275Y0060869D01*
X0561364Y0060644D01*
X0561449Y0060418D01*
X0561527Y0060190D01*
X0561600Y0059959D01*
X0561667Y0059727D01*
X0561729Y0059494D01*
X0561785Y0059259D01*
X0561835Y0059022D01*
X0561879Y0058785D01*
X0561917Y0058546D01*
X0561950Y0058307D01*
X0561977Y0058067D01*
X0561997Y0057826D01*
X0562012Y0057585D01*
X0562021Y0057344D01*
X0562024Y0057102D01*
X0562021Y0056860D01*
X0562012Y0056619D01*
X0561997Y0056378D01*
X0561977Y0056137D01*
X0561950Y0055897D01*
X0561917Y0055658D01*
X0561879Y0055419D01*
X0561835Y0055182D01*
X0561785Y0054945D01*
X0561729Y0054710D01*
X0561667Y0054477D01*
X0561600Y0054245D01*
X0561527Y0054014D01*
X0561449Y0053786D01*
X0561364Y0053560D01*
X0561275Y0053335D01*
X0561180Y0053113D01*
X0561079Y0052894D01*
X0560973Y0052676D01*
X0560862Y0052462D01*
X0560745Y0052250D01*
X0560624Y0052042D01*
X0560497Y0051836D01*
X0560365Y0051634D01*
X0560228Y0051434D01*
X0560087Y0051239D01*
X0559941Y0051046D01*
X0559790Y0050858D01*
X0559634Y0050673D01*
X0559474Y0050492D01*
X0559310Y0050315D01*
X0559141Y0050142D01*
X0558968Y0049973D01*
X0558791Y0049809D01*
X0558610Y0049649D01*
X0558425Y0049493D01*
X0558237Y0049342D01*
X0558044Y0049196D01*
X0557849Y0049055D01*
X0557649Y0048918D01*
X0557447Y0048786D01*
X0557241Y0048659D01*
X0557033Y0048538D01*
X0556821Y0048421D01*
X0556607Y0048310D01*
X0556389Y0048204D01*
X0556170Y0048103D01*
X0555948Y0048008D01*
X0555723Y0047919D01*
X0555497Y0047834D01*
X0555269Y0047756D01*
X0555038Y0047683D01*
X0554806Y0047616D01*
X0554573Y0047554D01*
X0554338Y0047498D01*
X0554101Y0047448D01*
X0553864Y0047404D01*
X0553625Y0047366D01*
X0553386Y0047333D01*
X0553146Y0047306D01*
X0552905Y0047286D01*
X0552664Y0047271D01*
X0552423Y0047262D01*
X0552181Y0047259D01*
X0551939Y0047262D01*
X0551698Y0047271D01*
X0551457Y0047286D01*
X0551216Y0047306D01*
X0550976Y0047333D01*
X0550737Y0047366D01*
X0550498Y0047404D01*
X0550261Y0047448D01*
X0550024Y0047498D01*
X0549789Y0047554D01*
X0549556Y0047616D01*
X0549324Y0047683D01*
X0549093Y0047756D01*
X0548865Y0047834D01*
X0548639Y0047919D01*
X0548414Y0048008D01*
X0548192Y0048103D01*
X0547973Y0048204D01*
X0547755Y0048310D01*
X0547541Y0048421D01*
X0547329Y0048538D01*
X0547121Y0048659D01*
X0546915Y0048786D01*
X0546713Y0048918D01*
X0546513Y0049055D01*
X0546318Y0049196D01*
X0546125Y0049342D01*
X0545937Y0049493D01*
X0545752Y0049649D01*
X0545571Y0049809D01*
X0545394Y0049973D01*
X0545221Y0050142D01*
X0545052Y0050315D01*
X0544888Y0050492D01*
X0544728Y0050673D01*
X0544572Y0050858D01*
X0544421Y0051046D01*
X0544275Y0051239D01*
X0544134Y0051434D01*
X0543997Y0051634D01*
X0543865Y0051836D01*
X0543738Y0052042D01*
X0543617Y0052250D01*
X0543500Y0052462D01*
X0543389Y0052676D01*
X0543283Y0052894D01*
X0543182Y0053113D01*
X0543087Y0053335D01*
X0542998Y0053560D01*
X0542913Y0053786D01*
X0542835Y0054014D01*
X0542762Y0054245D01*
X0542695Y0054477D01*
X0542633Y0054710D01*
X0542577Y0054945D01*
X0542527Y0055182D01*
X0542483Y0055419D01*
X0542445Y0055658D01*
X0542412Y0055897D01*
X0542385Y0056137D01*
X0542365Y0056378D01*
X0542350Y0056619D01*
X0542341Y0056860D01*
X0542338Y0057102D01*
M02*
