%
M48
M72
T01C0.01181
T02C0.01378
T03C0.03543
T04C0.15748
T05C0.19685
T06C0.27559
%
T01
X153559Y554642
X198835Y559071
X256906Y494110
X280528Y421276
X288402Y421276
X314976Y405528
X315961Y398638
X291846Y335646
X285449Y321866
X264780Y323835
X233283Y335646
X227870Y321866
X233283Y277575
X233283Y219012
X233283Y160941
X266748Y105331
X291846Y160941
X291846Y219012
X291846Y277575
X344012Y321866
X349917Y335646
X349917Y277575
X349917Y219012
X349917Y160941
X361236Y101394
X407988Y160941
X407988Y219012
X407988Y277575
X403067Y321866
X407988Y335646
X434071Y398638
X428165Y411433
X378953Y408480
X375016Y398638
X460646Y321866
X466551Y335646
X466551Y277575
X466551Y219012
X466551Y160941
X491157Y105331
X443913Y101394
X420291Y101394
X524622Y219012
X524622Y277575
X519209Y321866
X501000Y414386
X491157Y398638
X347457Y640764
X340567Y641748
X326945Y649622
X317437Y649622
X294307Y625016
X286163Y627969
X282496Y630921
X282496Y625016
X324819Y507890
X256906Y398638
X197850Y398638
X150606Y398638
X126984Y398638
X97457Y413402
X34957Y321866
X58087Y311039
X75803Y311039
X75803Y335646
X91551Y335646
X97949Y321866
X115173Y335646
X160941Y321866
X166354Y335646
X166354Y277575
X115173Y277575
X91551Y277575
X72850Y277575
X69898Y219012
X91551Y219012
X115173Y219012
X166354Y219012
X166354Y160941
X115173Y160941
X91551Y160941
X66945Y160941
X77772Y119110
X91551Y63008
X123539Y105331
X148638Y105331
T02
X94504Y500016
X97457Y497063
X110252Y502969
X116157Y502969
X122063Y502969
X127969Y502969
X133874Y502969
X139780Y502969
X145685Y502969
X151591Y502969
X157496Y502969
X163402Y502969
X160449Y508874
X154543Y508874
X148638Y508874
X142732Y508874
X136827Y508874
X130921Y508874
X125016Y508874
X119110Y508874
X113205Y508874
X116157Y514780
X110252Y514780
X113205Y520685
X116157Y526591
X110252Y526591
X113205Y532496
X119110Y532496
X125016Y532988
X122063Y538402
X116157Y538402
X110252Y538402
X113205Y544307
X119110Y544307
X125016Y544307
X130921Y544307
X136827Y544307
X139780Y538402
X142732Y532496
X139780Y526591
X142732Y521669
X145685Y526591
X148638Y521669
X151591Y526591
X136827Y521669
X133874Y526591
X130921Y521669
X127969Y526591
X122063Y514780
X122063Y550213
X127969Y550213
X133874Y550213
X125016Y556118
X119110Y556118
X113205Y556118
X116157Y550213
X110252Y550213
X110252Y562024
X116157Y562024
X122063Y562024
X119110Y567929
X113205Y567929
X116157Y573835
X110252Y573835
X113205Y579740
X119110Y579740
X116157Y585646
X110252Y585646
X113205Y591551
X119110Y591551
X122063Y585646
X127969Y585646
X133874Y585646
X139780Y585646
X145685Y585646
X151591Y585646
X157496Y585646
X154543Y579740
X160449Y579740
X163402Y573835
X169307Y573835
X169307Y562024
X163402Y562024
X160449Y567929
X154543Y567929
X151591Y562024
X157496Y573835
X178165Y556118
X175213Y550213
X181118Y550213
X187024Y550213
X192929Y550213
X198835Y550213
X204740Y550213
X210646Y550213
X207693Y556118
X201787Y556118
X195882Y556118
X189976Y556118
X184071Y556118
X187024Y562024
X192929Y562024
X181118Y562024
X178165Y544307
X172260Y544307
X175213Y538402
X181118Y538402
X187024Y538402
X192929Y538402
X198835Y538402
X204740Y538402
X210646Y538402
X207693Y544307
X201787Y544307
X195882Y544307
X189976Y544307
X184071Y544307
X184071Y532496
X189976Y532496
X195882Y532496
X201787Y532496
X207693Y532496
X210646Y526591
X204740Y526591
X198835Y526591
X192929Y526591
X187024Y526591
X181118Y526591
X175213Y526591
X178165Y532496
X172260Y532496
X172260Y520685
X178165Y520685
X179150Y511827
X184071Y520685
X189976Y520685
X195882Y520685
X201787Y520685
X207693Y520685
X217043Y518717
X228362Y526591
X234268Y526591
X237220Y520685
X242142Y525114
X245587Y525114
X249031Y525114
X252476Y525114
X257890Y526591
X263795Y526591
X260843Y520685
X266748Y520685
X270193Y525114
X273638Y525114
X277083Y525114
X280528Y525114
X283972Y525114
X287417Y525114
X290862Y525114
X294307Y525114
X299228Y526591
X305134Y526591
X311039Y526591
X316945Y526591
X322850Y526591
X328756Y526591
X334661Y526591
X331709Y532496
X337614Y532496
X343520Y532496
X349425Y532496
X355331Y532496
X361236Y532496
X367142Y532496
X364189Y526591
X358283Y526591
X352378Y526591
X346472Y526591
X343520Y520685
X346472Y514780
X340567Y514780
X343520Y508874
X343520Y497063
X337614Y497063
X331709Y497063
X334661Y491157
X328756Y491157
X323835Y493126
X319898Y497063
X316945Y491157
X319898Y485252
X325803Y485252
X331709Y485252
X337614Y485252
X334661Y479346
X328756Y479346
X322850Y479346
X316945Y479346
X311039Y479346
X305134Y479346
X308087Y473441
X313992Y473441
X319898Y473441
X325803Y473441
X331709Y473441
X337614Y473441
X334661Y467535
X328756Y467535
X322850Y467535
X316945Y467535
X311039Y467535
X305134Y467535
X299228Y467535
X293323Y467535
X287417Y467535
X290370Y461630
X296276Y461630
X302181Y461630
X308087Y461630
X313992Y461630
X319898Y461630
X325803Y461630
X331709Y461630
X337614Y461630
X343520Y461630
X349425Y461630
X355331Y461630
X361236Y461630
X367142Y461630
X373047Y461630
X378953Y461630
X381906Y467535
X376000Y467535
X370587Y467535
X373047Y473441
X378953Y473441
X381906Y479346
X376000Y479346
X371079Y479346
X373047Y485252
X367142Y485252
X370094Y491157
X376000Y491157
X381906Y491157
X378953Y485252
X378953Y497063
X373047Y497063
X376000Y502969
X381906Y502969
X378953Y508874
X381906Y514780
X376000Y514780
X378953Y520685
X381906Y526591
X376000Y526591
X378953Y532496
X381906Y538402
X376000Y538402
X378953Y544307
X381906Y550213
X376000Y550213
X378953Y556118
X381906Y562024
X376000Y562024
X378953Y567929
X381906Y573835
X376000Y573835
X370094Y573835
X367142Y579740
X373047Y579740
X378953Y579740
X381906Y585646
X376000Y585646
X370094Y585646
X364189Y585646
X358283Y585646
X355331Y591551
X361236Y591551
X367142Y591551
X373047Y591551
X378953Y591551
X381906Y597457
X376000Y597457
X370094Y597457
X364189Y597457
X358283Y597457
X352378Y597457
X346472Y597457
X349425Y603362
X355331Y603362
X361236Y603362
X367142Y603362
X373047Y603362
X378953Y603362
X381906Y609268
X376000Y609268
X370094Y609268
X364189Y609268
X358283Y609268
X352378Y609268
X346472Y609268
X349425Y615173
X355331Y615173
X361236Y615173
X367142Y615173
X373047Y615173
X378953Y615173
X381906Y621079
X376000Y621079
X370094Y621079
X364189Y621079
X358283Y621079
X352378Y621079
X346472Y621079
X349425Y626984
X355331Y626984
X361236Y626984
X367142Y626984
X373047Y626984
X378953Y626984
X381906Y632890
X376000Y632890
X370094Y632890
X364189Y632890
X367142Y638795
X373047Y638795
X378953Y638795
X381906Y644701
X376000Y644701
X370094Y644701
X364189Y644701
X359268Y645193
X352378Y644701
X346472Y644701
X340075Y647161
X337614Y650606
X331709Y650606
X323835Y645685
X323835Y640764
X311039Y656512
X308087Y662417
X302181Y662417
X296276Y662417
X299228Y668323
X305134Y668323
X294307Y672260
X263795Y691945
X257890Y691945
X260843Y697850
X263795Y703756
X257890Y703756
X249031Y709661
X243126Y709661
X237220Y709661
X231315Y709661
X225409Y709661
X219504Y709661
X213598Y709661
X207693Y709661
X201787Y709661
X195882Y709661
X189976Y709661
X184071Y709661
X187024Y703756
X192929Y703756
X198835Y703756
X204740Y703756
X210646Y703756
X216551Y703756
X222457Y703756
X228362Y703756
X234268Y703756
X240173Y703756
X246079Y703756
X243126Y697850
X237220Y697850
X231315Y697850
X225409Y697850
X219504Y697850
X213598Y697850
X207693Y697850
X201787Y697850
X195882Y697850
X189976Y697850
X184071Y697850
X187024Y691945
X192929Y691945
X198835Y691945
X204740Y691945
X210646Y691945
X216551Y691945
X222457Y691945
X228362Y691945
X234268Y691945
X237220Y686039
X231315Y686039
X225409Y686039
X219504Y686039
X213598Y686039
X207693Y686039
X201787Y686039
X195882Y686039
X189976Y686039
X184071Y686039
X187024Y680134
X192929Y680134
X198835Y680134
X204740Y680134
X210646Y680134
X216551Y680134
X222457Y680134
X228362Y680134
X234268Y680134
X237220Y674228
X231315Y674228
X225409Y674228
X219504Y674228
X213598Y674228
X207693Y674228
X201787Y674228
X195882Y674228
X189976Y674228
X184071Y674228
X187024Y668323
X192929Y668323
X198835Y668323
X204740Y668323
X210646Y668323
X216551Y668323
X222457Y668323
X228362Y668323
X234268Y668323
X237220Y661433
X243126Y674228
X251984Y668323
X257890Y668323
X263795Y668323
X260843Y674228
X254937Y674228
X251984Y680134
X257890Y680134
X263795Y680134
X260843Y686039
X254937Y686039
X249031Y686039
X251000Y660449
X254445Y656512
X251492Y652083
X258382Y652083
X263795Y656512
X269701Y656512
X266748Y650606
X275606Y644701
X281512Y644701
X284465Y638795
X287417Y632890
X287417Y644701
X302181Y615173
X299228Y609268
X293323Y609268
X287417Y609268
X290370Y603362
X296276Y603362
X291354Y596965
X285941Y596965
X286433Y591551
X278559Y591551
X272654Y591551
X266748Y591551
X260843Y591551
X254937Y591551
X249031Y591551
X243126Y591551
X237220Y591551
X231315Y591551
X234268Y585646
X240173Y585646
X246079Y585646
X251984Y585646
X257890Y585646
X263795Y585646
X269701Y585646
X275606Y585646
X272654Y579740
X266748Y579740
X260843Y579740
X254937Y579740
X249031Y579740
X243126Y579740
X237220Y579740
X231315Y579740
X225409Y579740
X219504Y579740
X216551Y585646
X213598Y591551
X219504Y591551
X222457Y597457
X228362Y597457
X225409Y603362
X219504Y603362
X216551Y597457
X216551Y609268
X222457Y609268
X228362Y609268
X225409Y615173
X219504Y615173
X213598Y615173
X207693Y615173
X201787Y615173
X195882Y615173
X189976Y615173
X184071Y615173
X181118Y609268
X175213Y609268
X169307Y609268
X163402Y609268
X157496Y609268
X151591Y609268
X145685Y609268
X139780Y609268
X133874Y609268
X127969Y609268
X122063Y609268
X116157Y609268
X110252Y609268
X113205Y615173
X119110Y615173
X125016Y615173
X130921Y615173
X136827Y615173
X142732Y615173
X148638Y615173
X154543Y615173
X160449Y615173
X166354Y615173
X172260Y615173
X178165Y615173
X175213Y621079
X181118Y621079
X187024Y621079
X192929Y621079
X198835Y621079
X204740Y621079
X210646Y621079
X216551Y621079
X222457Y621079
X228362Y621079
X225409Y626984
X219504Y626984
X213598Y626984
X207693Y626984
X201787Y626984
X195882Y626984
X189976Y626984
X184071Y626984
X187024Y632890
X192929Y632890
X198835Y632890
X204740Y632890
X210646Y632890
X216551Y632890
X222457Y632890
X228362Y632890
X225409Y638795
X219504Y638795
X213598Y638795
X207693Y638795
X201787Y638795
X195882Y638795
X189976Y638795
X184071Y638795
X181118Y632890
X175213Y632890
X169307Y632890
X163402Y632890
X157496Y632890
X151591Y632890
X145685Y632890
X139780Y632890
X133874Y632890
X127969Y632890
X122063Y632890
X116157Y632890
X110252Y632890
X113205Y638795
X119110Y638795
X125016Y638795
X130921Y638795
X136827Y638795
X142732Y638795
X148638Y638795
X154543Y638795
X160449Y638795
X166354Y638795
X172260Y638795
X178165Y638795
X175213Y644701
X181118Y644701
X187024Y644701
X192929Y644701
X198835Y644701
X204740Y644701
X210646Y644701
X216551Y644701
X222457Y644701
X228362Y644701
X225409Y650606
X219504Y650606
X213598Y650606
X207693Y650606
X201787Y650606
X195882Y650606
X189976Y650606
X184071Y650606
X187024Y656512
X192929Y656512
X198835Y656512
X204740Y656512
X210646Y656512
X216551Y656512
X222457Y656512
X228362Y656512
X225409Y662417
X219504Y662417
X213598Y662417
X207693Y662417
X201787Y662417
X195882Y662417
X189976Y662417
X184071Y662417
X181118Y656512
X175213Y656512
X169307Y656512
X163402Y656512
X157496Y656512
X151591Y656512
X145685Y656512
X139780Y656512
X133874Y656512
X127969Y656512
X122063Y656512
X116157Y656512
X110252Y656512
X113205Y662417
X119110Y662417
X125016Y662417
X130921Y662417
X136827Y662417
X142732Y662417
X148638Y662417
X154543Y662417
X160449Y662417
X166354Y662417
X172260Y662417
X178165Y662417
X175213Y668323
X181118Y668323
X178165Y674228
X172260Y674228
X166354Y674228
X160449Y674228
X154543Y674228
X148638Y674228
X142732Y674228
X136827Y674228
X130921Y674228
X125016Y674228
X119110Y674228
X113205Y674228
X116157Y668323
X110252Y668323
X110252Y680134
X122063Y668323
X127969Y668323
X133874Y668323
X139780Y668323
X145685Y668323
X151591Y668323
X157496Y668323
X163402Y668323
X169307Y668323
X169307Y680134
X163402Y680134
X157496Y680134
X151591Y680134
X145685Y680134
X139780Y680134
X133874Y680134
X136827Y686039
X142732Y686039
X148638Y686039
X154543Y686039
X160449Y686039
X166354Y686039
X172260Y686039
X178165Y686039
X175213Y680134
X181118Y680134
X181118Y691945
X175213Y691945
X169307Y691945
X163402Y691945
X157496Y691945
X151591Y691945
X145685Y691945
X139780Y691945
X142732Y697850
X148638Y697850
X154543Y697850
X160449Y697850
X166354Y697850
X172260Y697850
X178165Y697850
X175213Y703756
X181118Y703756
X178165Y709661
X172260Y709661
X166354Y709661
X160449Y709661
X154543Y709661
X148638Y709661
X142732Y709661
X136827Y709661
X130921Y709661
X139780Y703756
X145685Y703756
X151591Y703756
X157496Y703756
X163402Y703756
X169307Y703756
X113205Y709661
X110252Y644701
X116157Y644701
X122063Y644701
X127969Y644701
X133874Y644701
X139780Y644701
X145685Y644701
X151591Y644701
X157496Y644701
X163402Y644701
X169307Y644701
X166354Y650606
X160449Y650606
X154543Y650606
X148638Y650606
X142732Y650606
X136827Y650606
X130921Y650606
X125016Y650606
X119110Y650606
X113205Y650606
X113205Y626984
X119110Y626984
X125016Y626984
X130921Y626984
X136827Y626984
X142732Y626984
X148638Y626984
X154543Y626984
X160449Y626984
X166354Y626984
X172260Y626984
X178165Y626984
X169307Y621079
X163402Y621079
X157496Y621079
X151591Y621079
X145685Y621079
X139780Y621079
X133874Y621079
X127969Y621079
X122063Y621079
X116157Y621079
X110252Y621079
X113205Y603362
X119110Y603362
X125016Y603362
X130921Y603362
X136827Y603362
X142732Y603362
X148638Y603362
X154543Y603362
X160449Y603362
X166354Y603362
X172260Y603362
X178165Y603362
X169307Y597457
X163402Y597457
X157496Y597457
X151591Y597457
X145685Y597457
X139780Y597457
X133874Y597457
X127969Y597457
X122063Y597457
X116157Y597457
X110252Y597457
X172260Y650606
X178165Y650606
X205724Y609268
X201787Y592043
X228362Y585646
X240173Y597457
X246079Y597457
X251984Y597457
X257890Y597457
X263795Y597457
X269701Y597457
X275606Y597457
X260843Y615173
X254937Y615173
X251984Y619110
X251984Y609268
X257890Y609268
X249031Y603362
X237220Y603362
X237220Y615173
X235744Y621079
X237220Y626984
X235744Y632890
X240665Y632890
X246079Y632890
X251984Y632890
X249031Y638795
X243126Y638795
X237220Y638795
X237220Y650606
X260843Y662417
X262811Y629937
X292339Y585646
X290370Y579740
X296276Y579740
X302181Y579740
X308087Y579740
X313992Y579740
X319898Y579740
X325803Y579740
X331709Y579740
X337614Y579740
X343520Y579740
X349425Y579740
X355331Y579740
X358283Y573835
X352378Y573835
X346472Y573835
X343520Y567929
X349425Y567929
X355331Y567929
X361236Y567929
X358283Y562024
X352378Y562024
X346472Y562024
X343520Y556118
X349425Y556118
X355331Y556118
X361236Y556118
X367142Y556118
X364189Y550213
X358283Y550213
X352378Y550213
X346472Y550213
X343520Y544307
X349425Y544307
X355331Y544307
X361236Y544307
X367142Y544307
X364189Y538402
X358283Y538402
X352378Y538402
X346472Y538402
X337614Y544307
X331709Y544307
X325803Y544307
X319898Y544307
X313992Y544307
X308087Y544307
X302181Y544307
X296276Y544307
X290370Y544307
X284465Y544307
X278559Y544307
X275606Y550213
X281512Y550213
X284465Y556118
X290370Y556118
X296276Y556118
X302181Y556118
X308087Y556118
X313992Y556118
X319898Y556118
X325803Y556118
X331709Y556118
X337614Y556118
X334661Y550213
X328756Y550213
X322850Y550213
X316945Y550213
X311039Y550213
X305134Y550213
X299228Y550213
X293323Y550213
X287417Y550213
X287417Y538402
X293323Y538402
X299228Y538402
X305134Y538402
X311039Y538402
X316945Y538402
X322850Y538402
X328756Y538402
X334661Y538402
X325803Y532496
X319898Y532496
X313992Y532496
X308087Y532496
X302181Y532496
X296276Y532496
X290370Y532496
X302181Y520685
X308087Y520685
X313992Y520685
X319898Y520685
X325803Y520685
X331709Y520685
X322850Y514780
X316945Y514780
X311039Y514780
X305134Y514780
X308087Y508874
X313992Y508874
X308087Y497063
X302181Y497063
X296276Y497063
X290370Y497063
X284465Y497063
X278559Y497063
X272654Y497063
X266748Y497063
X260843Y497063
X269701Y491157
X275606Y491157
X281512Y491157
X284465Y485252
X290370Y485252
X296276Y485252
X299228Y491157
X293323Y491157
X287417Y491157
X278559Y485252
X272654Y485252
X260843Y473441
X254937Y473441
X249031Y473441
X243126Y473441
X246079Y479346
X251984Y479346
X243126Y485252
X240173Y491157
X238205Y497063
X243126Y497063
X249031Y497063
X246079Y502969
X240173Y502969
X249031Y508874
X254937Y508874
X269701Y514780
X275606Y514780
X272654Y508874
X278559Y508874
X287417Y479346
X296276Y473441
X302181Y473441
X308087Y485252
X313992Y485252
X328756Y502969
X349425Y483776
X355331Y485252
X352378Y492142
X349425Y473441
X346472Y455724
X340567Y455724
X334661Y455724
X328756Y455724
X322850Y455724
X316945Y455724
X311039Y455724
X305134Y455724
X299228Y455724
X293323Y455724
X287417Y455724
X284465Y449819
X290370Y449819
X296276Y449819
X302181Y449819
X308087Y449819
X313992Y449819
X319898Y449819
X325803Y449819
X331709Y449819
X337614Y449819
X343520Y449819
X349425Y449819
X355331Y449819
X361236Y449819
X367142Y449819
X373047Y449819
X378953Y449819
X381906Y455724
X376000Y455724
X370094Y455724
X364189Y455724
X358283Y455724
X352378Y455724
X352378Y443913
X358283Y443913
X364189Y443913
X370094Y443913
X376000Y443913
X381906Y443913
X346472Y443913
X340567Y443913
X334661Y443913
X328756Y443913
X322850Y443913
X316945Y443913
X311039Y443913
X305134Y443913
X299228Y443913
X293323Y443913
X287417Y443913
X281512Y443913
X275606Y443913
X269701Y443913
X263795Y443913
X257890Y443913
X251984Y443913
X246079Y443913
X240173Y443913
X238205Y449819
X243126Y449819
X249031Y449819
X254937Y449819
X260843Y449819
X266748Y449819
X272654Y449819
X278559Y449819
X281512Y455724
X243126Y461630
X238205Y461630
X240173Y467535
X240173Y479346
X240173Y455724
X212614Y437024
X193913Y443913
X191945Y447850
X191945Y453756
X193913Y457693
X200803Y511827
X229346Y550705
X234268Y550705
X240173Y550705
X246079Y550705
X251984Y550705
X251984Y538402
X246079Y538402
X249031Y532496
X254937Y532496
X266748Y556118
X272654Y556118
X278559Y556118
X275606Y562024
X281512Y562024
X284465Y567929
X290370Y567929
X296276Y567929
X302181Y567929
X308087Y567929
X313992Y567929
X319898Y567929
X325803Y567929
X331709Y567929
X337614Y567929
X334661Y562024
X328756Y562024
X322850Y562024
X316945Y562024
X311039Y562024
X305134Y562024
X299228Y562024
X293323Y562024
X287417Y562024
X287417Y573835
X293323Y573835
X299228Y573835
X305134Y573835
X311039Y573835
X316945Y573835
X322850Y573835
X328756Y573835
X334661Y573835
X346472Y585646
X343520Y591551
X337614Y591551
X331709Y591551
X325803Y591551
X319898Y591551
X313992Y591551
X308087Y591551
X302181Y591551
X305134Y597457
X311039Y597457
X316945Y597457
X322850Y597457
X328756Y597457
X334661Y597457
X331709Y603362
X337614Y603362
X334661Y609268
X328756Y609268
X322850Y609268
X316945Y609268
X319898Y603362
X325803Y603362
X325803Y615173
X331709Y615173
X337614Y615173
X334661Y621079
X328756Y621079
X346472Y632890
X352870Y654543
X359268Y654543
X367142Y650606
X373047Y650606
X378953Y650606
X381906Y656512
X376000Y656512
X370094Y656512
X367142Y662417
X373047Y662417
X378953Y662417
X381906Y668323
X376000Y668323
X370094Y668323
X364189Y668323
X358283Y668323
X352378Y668323
X355331Y674228
X361236Y674228
X367142Y674228
X373047Y674228
X378953Y674228
X381906Y680134
X376000Y680134
X370094Y680134
X364189Y680134
X358283Y680134
X352378Y680134
X346472Y680134
X340567Y680134
X334661Y680134
X328756Y680134
X331709Y686039
X325803Y686039
X322850Y691945
X316945Y691945
X319898Y697850
X325803Y697850
X328756Y691945
X337614Y697850
X343520Y697850
X349425Y697850
X355331Y697850
X361236Y697850
X367142Y697850
X373047Y697850
X378953Y697850
X381906Y691945
X376000Y691945
X370094Y691945
X364189Y691945
X358283Y691945
X352378Y691945
X346472Y691945
X340567Y691945
X343520Y686039
X349425Y686039
X355331Y686039
X361236Y686039
X367142Y686039
X373047Y686039
X378953Y686039
X381906Y703756
X376000Y703756
X370094Y703756
X364189Y703756
X358283Y703756
X352378Y703756
X346472Y703756
X340567Y703756
X334661Y703756
X331709Y709661
X337614Y709661
X343520Y709661
X349425Y709661
X355331Y709661
X361236Y709661
X367142Y709661
X373047Y709661
X378953Y709661
X349425Y674228
X343520Y674228
X340567Y668323
X334661Y668323
X333677Y674228
X343520Y662417
X325803Y668815
X325803Y674228
X316945Y670291
X316945Y703756
X311039Y703756
X325803Y709661
X313992Y603362
X278559Y567929
X364189Y562024
X362220Y520685
X367142Y520685
X364189Y514780
X368618Y508874
T03
X278756Y692850
X296079Y692850
T04
X37417Y107299
X71866Y689976
X502969Y689976
X537417Y107299
T05
X22654Y57102
X22654Y395685
X22654Y471472
X22654Y660449
X552181Y660449
X552181Y471472
X552181Y395685
X552181Y57102
T06
X96472Y448835
X122063Y694898
X452772Y694898
X478362Y448835
M30
